<mxfile host="app.diagrams.net" modified="2023-09-22T22:06:54.299Z" agent="Mozilla/5.0 (X11; Ubuntu; Linux x86_64; rv:109.0) Gecko/20100101 Firefox/116.0" etag="dQHvSApv5MuGrJaTeDPx" version="21.3.8" type="device" pages="2">
  <diagram name="Page-1" id="_tIDG54dBTDYyGci-jfx">
    <mxGraphModel dx="1434" dy="749" grid="1" gridSize="10" guides="1" tooltips="1" connect="1" arrows="1" fold="1" page="1" pageScale="1" pageWidth="850" pageHeight="1100" math="0" shadow="0">
      <root>
        <mxCell id="0" />
        <mxCell id="1" parent="0" />
        <mxCell id="vT_4UTrxaRrFR3VL8aXK-1" value="Village" style="swimlane;fontStyle=1;align=center;verticalAlign=top;childLayout=stackLayout;horizontal=1;startSize=26;horizontalStack=0;resizeParent=1;resizeParentMax=0;resizeLast=0;collapsible=1;marginBottom=0;whiteSpace=wrap;html=1;" parent="1" vertex="1">
          <mxGeometry x="180" y="350" width="260" height="140" as="geometry" />
        </mxCell>
        <mxCell id="vT_4UTrxaRrFR3VL8aXK-2" value="&lt;pre&gt;&lt;code class=&quot;!whitespace-pre hljs language-sql&quot;&gt;+ id INTEGER &lt;span class=&quot;hljs-keyword&quot;&gt;PRIMARY&lt;/span&gt; KEY AUTOINCR&lt;br&gt;+ name TEXT &lt;span class=&quot;hljs-keyword&quot;&gt;NOT&lt;/span&gt; &lt;span class=&quot;hljs-keyword&quot;&gt;NULL&lt;/span&gt;,&lt;br&gt;+ owned INT //does player own it&lt;br&gt;&lt;/code&gt;&lt;/pre&gt;" style="text;strokeColor=none;fillColor=none;align=left;verticalAlign=top;spacingLeft=4;spacingRight=4;overflow=hidden;rotatable=0;points=[[0,0.5],[1,0.5]];portConstraint=eastwest;whiteSpace=wrap;html=1;" parent="vT_4UTrxaRrFR3VL8aXK-1" vertex="1">
          <mxGeometry y="26" width="260" height="74" as="geometry" />
        </mxCell>
        <mxCell id="vT_4UTrxaRrFR3VL8aXK-3" value="" style="line;strokeWidth=1;fillColor=none;align=left;verticalAlign=middle;spacingTop=-1;spacingLeft=3;spacingRight=3;rotatable=0;labelPosition=right;points=[];portConstraint=eastwest;strokeColor=inherit;" parent="vT_4UTrxaRrFR3VL8aXK-1" vertex="1">
          <mxGeometry y="100" width="260" height="8" as="geometry" />
        </mxCell>
        <mxCell id="vT_4UTrxaRrFR3VL8aXK-4" value="+ method(type): type" style="text;strokeColor=none;fillColor=none;align=left;verticalAlign=top;spacingLeft=4;spacingRight=4;overflow=hidden;rotatable=0;points=[[0,0.5],[1,0.5]];portConstraint=eastwest;whiteSpace=wrap;html=1;" parent="vT_4UTrxaRrFR3VL8aXK-1" vertex="1">
          <mxGeometry y="108" width="260" height="32" as="geometry" />
        </mxCell>
        <mxCell id="vT_4UTrxaRrFR3VL8aXK-5" value="Unit" style="swimlane;fontStyle=1;align=center;verticalAlign=top;childLayout=stackLayout;horizontal=1;startSize=26;horizontalStack=0;resizeParent=1;resizeParentMax=0;resizeLast=0;collapsible=1;marginBottom=0;whiteSpace=wrap;html=1;" parent="1" vertex="1">
          <mxGeometry x="580" y="160" width="160" height="202" as="geometry" />
        </mxCell>
        <mxCell id="vT_4UTrxaRrFR3VL8aXK-6" value="&lt;div&gt;+ id&lt;br&gt;&lt;code class=&quot;!whitespace-pre hljs language-sql&quot;&gt;+ village_id INTEGER &lt;span style=&quot;white-space: pre;&quot;&gt;&amp;nbsp;&amp;nbsp;&amp;nbsp;&amp;nbsp;&lt;/span&gt;FK villages(ID),&lt;br&gt;&lt;/code&gt;+ name&lt;br&gt;+ image&lt;br&gt;+ level&lt;/div&gt;&lt;div&gt;+ offence&lt;/div&gt;&lt;div&gt;+ defence&lt;br&gt;&lt;/div&gt;" style="text;strokeColor=none;fillColor=none;align=left;verticalAlign=top;spacingLeft=4;spacingRight=4;overflow=hidden;rotatable=0;points=[[0,0.5],[1,0.5]];portConstraint=eastwest;whiteSpace=wrap;html=1;" parent="vT_4UTrxaRrFR3VL8aXK-5" vertex="1">
          <mxGeometry y="26" width="160" height="134" as="geometry" />
        </mxCell>
        <mxCell id="vT_4UTrxaRrFR3VL8aXK-48" value="" style="line;strokeWidth=1;fillColor=none;align=left;verticalAlign=middle;spacingTop=-1;spacingLeft=3;spacingRight=3;rotatable=0;labelPosition=right;points=[];portConstraint=eastwest;strokeColor=inherit;" parent="vT_4UTrxaRrFR3VL8aXK-5" vertex="1">
          <mxGeometry y="160" width="160" height="8" as="geometry" />
        </mxCell>
        <mxCell id="vT_4UTrxaRrFR3VL8aXK-7" value="" style="line;strokeWidth=1;fillColor=none;align=left;verticalAlign=middle;spacingTop=-1;spacingLeft=3;spacingRight=3;rotatable=0;labelPosition=right;points=[];portConstraint=eastwest;strokeColor=inherit;" parent="vT_4UTrxaRrFR3VL8aXK-5" vertex="1">
          <mxGeometry y="168" width="160" height="8" as="geometry" />
        </mxCell>
        <mxCell id="vT_4UTrxaRrFR3VL8aXK-8" value="+ method(type): type" style="text;strokeColor=none;fillColor=none;align=left;verticalAlign=top;spacingLeft=4;spacingRight=4;overflow=hidden;rotatable=0;points=[[0,0.5],[1,0.5]];portConstraint=eastwest;whiteSpace=wrap;html=1;" parent="vT_4UTrxaRrFR3VL8aXK-5" vertex="1">
          <mxGeometry y="176" width="160" height="26" as="geometry" />
        </mxCell>
        <mxCell id="vT_4UTrxaRrFR3VL8aXK-9" value="Building" style="swimlane;fontStyle=1;align=center;verticalAlign=top;childLayout=stackLayout;horizontal=1;startSize=26;horizontalStack=0;resizeParent=1;resizeParentMax=0;resizeLast=0;collapsible=1;marginBottom=0;whiteSpace=wrap;html=1;" parent="1" vertex="1">
          <mxGeometry x="580" y="402" width="160" height="174" as="geometry" />
        </mxCell>
        <mxCell id="vT_4UTrxaRrFR3VL8aXK-10" value="&lt;div&gt;+ id&lt;br&gt;&lt;code class=&quot;!whitespace-pre hljs language-sql&quot;&gt;+ village_id INTEGER &lt;span style=&quot;white-space: pre;&quot;&gt;&#x9;&lt;/span&gt;FK villages(ID),&lt;br&gt;&lt;/code&gt;+ name&lt;br&gt;+ image&lt;br&gt;+ level&lt;/div&gt;" style="text;strokeColor=none;fillColor=none;align=left;verticalAlign=top;spacingLeft=4;spacingRight=4;overflow=hidden;rotatable=0;points=[[0,0.5],[1,0.5]];portConstraint=eastwest;whiteSpace=wrap;html=1;" parent="vT_4UTrxaRrFR3VL8aXK-9" vertex="1">
          <mxGeometry y="26" width="160" height="114" as="geometry" />
        </mxCell>
        <mxCell id="vT_4UTrxaRrFR3VL8aXK-11" value="" style="line;strokeWidth=1;fillColor=none;align=left;verticalAlign=middle;spacingTop=-1;spacingLeft=3;spacingRight=3;rotatable=0;labelPosition=right;points=[];portConstraint=eastwest;strokeColor=inherit;" parent="vT_4UTrxaRrFR3VL8aXK-9" vertex="1">
          <mxGeometry y="140" width="160" height="8" as="geometry" />
        </mxCell>
        <mxCell id="vT_4UTrxaRrFR3VL8aXK-12" value="+ method(type): type" style="text;strokeColor=none;fillColor=none;align=left;verticalAlign=top;spacingLeft=4;spacingRight=4;overflow=hidden;rotatable=0;points=[[0,0.5],[1,0.5]];portConstraint=eastwest;whiteSpace=wrap;html=1;" parent="vT_4UTrxaRrFR3VL8aXK-9" vertex="1">
          <mxGeometry y="148" width="160" height="26" as="geometry" />
        </mxCell>
        <mxCell id="vT_4UTrxaRrFR3VL8aXK-17" value="Misc_object" style="swimlane;fontStyle=1;align=center;verticalAlign=top;childLayout=stackLayout;horizontal=1;startSize=26;horizontalStack=0;resizeParent=1;resizeParentMax=0;resizeLast=0;collapsible=1;marginBottom=0;whiteSpace=wrap;html=1;" parent="1" vertex="1">
          <mxGeometry x="580" y="600" width="160" height="144" as="geometry" />
        </mxCell>
        <mxCell id="vT_4UTrxaRrFR3VL8aXK-18" value="id&lt;br&gt;&lt;code class=&quot;!whitespace-pre hljs language-sql&quot;&gt;+ village_id INTEGER &lt;span style=&quot;white-space: pre;&quot;&gt;&amp;nbsp;&amp;nbsp;&amp;nbsp;&amp;nbsp;&lt;/span&gt;FK villages(ID),&lt;br&gt;&lt;/code&gt;+ name&lt;br&gt;+ image" style="text;strokeColor=none;fillColor=none;align=left;verticalAlign=top;spacingLeft=4;spacingRight=4;overflow=hidden;rotatable=0;points=[[0,0.5],[1,0.5]];portConstraint=eastwest;whiteSpace=wrap;html=1;" parent="vT_4UTrxaRrFR3VL8aXK-17" vertex="1">
          <mxGeometry y="26" width="160" height="84" as="geometry" />
        </mxCell>
        <mxCell id="vT_4UTrxaRrFR3VL8aXK-19" value="" style="line;strokeWidth=1;fillColor=none;align=left;verticalAlign=middle;spacingTop=-1;spacingLeft=3;spacingRight=3;rotatable=0;labelPosition=right;points=[];portConstraint=eastwest;strokeColor=inherit;" parent="vT_4UTrxaRrFR3VL8aXK-17" vertex="1">
          <mxGeometry y="110" width="160" height="8" as="geometry" />
        </mxCell>
        <mxCell id="vT_4UTrxaRrFR3VL8aXK-20" value="+ method(type): type" style="text;strokeColor=none;fillColor=none;align=left;verticalAlign=top;spacingLeft=4;spacingRight=4;overflow=hidden;rotatable=0;points=[[0,0.5],[1,0.5]];portConstraint=eastwest;whiteSpace=wrap;html=1;" parent="vT_4UTrxaRrFR3VL8aXK-17" vertex="1">
          <mxGeometry y="118" width="160" height="26" as="geometry" />
        </mxCell>
        <mxCell id="vT_4UTrxaRrFR3VL8aXK-27" value="Relation" style="endArrow=open;html=1;endSize=12;startArrow=diamondThin;startSize=14;startFill=0;edgeStyle=orthogonalEdgeStyle;rounded=0;exitX=-0.006;exitY=0.041;exitDx=0;exitDy=0;entryX=1;entryY=0.269;entryDx=0;entryDy=0;entryPerimeter=0;exitPerimeter=0;" parent="1" source="vT_4UTrxaRrFR3VL8aXK-5" target="vT_4UTrxaRrFR3VL8aXK-2" edge="1">
          <mxGeometry relative="1" as="geometry">
            <mxPoint x="320" y="260" as="sourcePoint" />
            <mxPoint x="480" y="260" as="targetPoint" />
          </mxGeometry>
        </mxCell>
        <mxCell id="vT_4UTrxaRrFR3VL8aXK-28" value="0..n" style="edgeLabel;resizable=0;html=1;align=left;verticalAlign=top;" parent="vT_4UTrxaRrFR3VL8aXK-27" connectable="0" vertex="1">
          <mxGeometry x="-1" relative="1" as="geometry" />
        </mxCell>
        <mxCell id="vT_4UTrxaRrFR3VL8aXK-29" value="1" style="edgeLabel;resizable=0;html=1;align=right;verticalAlign=top;" parent="vT_4UTrxaRrFR3VL8aXK-27" connectable="0" vertex="1">
          <mxGeometry x="1" relative="1" as="geometry" />
        </mxCell>
        <mxCell id="vT_4UTrxaRrFR3VL8aXK-30" value="Relation" style="endArrow=open;html=1;endSize=12;startArrow=diamondThin;startSize=14;startFill=0;edgeStyle=orthogonalEdgeStyle;rounded=0;exitX=-0.006;exitY=0.846;exitDx=0;exitDy=0;exitPerimeter=0;entryX=0.994;entryY=0.154;entryDx=0;entryDy=0;entryPerimeter=0;" parent="1" source="vT_4UTrxaRrFR3VL8aXK-10" target="vT_4UTrxaRrFR3VL8aXK-4" edge="1">
          <mxGeometry relative="1" as="geometry">
            <mxPoint x="589" y="334" as="sourcePoint" />
            <mxPoint x="510" y="393" as="targetPoint" />
          </mxGeometry>
        </mxCell>
        <mxCell id="vT_4UTrxaRrFR3VL8aXK-31" value="0..n" style="edgeLabel;resizable=0;html=1;align=left;verticalAlign=top;" parent="vT_4UTrxaRrFR3VL8aXK-30" connectable="0" vertex="1">
          <mxGeometry x="-1" relative="1" as="geometry" />
        </mxCell>
        <mxCell id="vT_4UTrxaRrFR3VL8aXK-32" value="1" style="edgeLabel;resizable=0;html=1;align=right;verticalAlign=top;" parent="vT_4UTrxaRrFR3VL8aXK-30" connectable="0" vertex="1">
          <mxGeometry x="1" relative="1" as="geometry" />
        </mxCell>
        <mxCell id="vT_4UTrxaRrFR3VL8aXK-36" value="Relation" style="endArrow=open;html=1;endSize=12;startArrow=diamondThin;startSize=14;startFill=0;edgeStyle=orthogonalEdgeStyle;rounded=0;entryX=0.831;entryY=1;entryDx=0;entryDy=0;entryPerimeter=0;exitX=-0.012;exitY=0.076;exitDx=0;exitDy=0;exitPerimeter=0;" parent="1" source="vT_4UTrxaRrFR3VL8aXK-17" target="vT_4UTrxaRrFR3VL8aXK-4" edge="1">
          <mxGeometry relative="1" as="geometry">
            <mxPoint x="570" y="610" as="sourcePoint" />
            <mxPoint x="580" y="570" as="targetPoint" />
            <Array as="points">
              <mxPoint x="473" y="611" />
              <mxPoint x="473" y="490" />
            </Array>
          </mxGeometry>
        </mxCell>
        <mxCell id="vT_4UTrxaRrFR3VL8aXK-37" value="0..n" style="edgeLabel;resizable=0;html=1;align=left;verticalAlign=top;" parent="vT_4UTrxaRrFR3VL8aXK-36" connectable="0" vertex="1">
          <mxGeometry x="-1" relative="1" as="geometry" />
        </mxCell>
        <mxCell id="vT_4UTrxaRrFR3VL8aXK-38" value="1" style="edgeLabel;resizable=0;html=1;align=right;verticalAlign=top;" parent="vT_4UTrxaRrFR3VL8aXK-36" connectable="0" vertex="1">
          <mxGeometry x="1" relative="1" as="geometry" />
        </mxCell>
        <mxCell id="vT_4UTrxaRrFR3VL8aXK-43" value="Tile" style="swimlane;fontStyle=1;align=center;verticalAlign=top;childLayout=stackLayout;horizontal=1;startSize=26;horizontalStack=0;resizeParent=1;resizeParentMax=0;resizeLast=0;collapsible=1;marginBottom=0;whiteSpace=wrap;html=1;" parent="1" vertex="1">
          <mxGeometry x="180" y="670" width="310" height="174" as="geometry" />
        </mxCell>
        <mxCell id="vT_4UTrxaRrFR3VL8aXK-44" value="&lt;pre&gt;&lt;code class=&quot;!whitespace-pre hljs language-sql&quot;&gt; + tile_id INTEGER &lt;span class=&quot;hljs-keyword&quot;&gt;PRIMARY&lt;/span&gt; KEY AUTOINCR,&lt;br&gt; + village_id &lt;span class=&quot;hljs-type&quot;&gt;INTEGER&lt;/span&gt; - FK villages(ID),&lt;br&gt;&lt;/code&gt;&lt;code class=&quot;!whitespace-pre hljs language-sql&quot;&gt; + row_num: INTEGER&lt;br&gt; + column_num: INTEGER&lt;/code&gt;&lt;br&gt;&lt;code class=&quot;!whitespace-pre hljs language-sql&quot;&gt; + content_type TEXT,&lt;br&gt; + content_id &lt;span class=&quot;hljs-type&quot;&gt;INTEGER&lt;/span&gt;, &lt;br&gt;&lt;/code&gt;&lt;/pre&gt;" style="text;strokeColor=none;fillColor=none;align=left;verticalAlign=top;spacingLeft=4;spacingRight=4;overflow=hidden;rotatable=0;points=[[0,0.5],[1,0.5]];portConstraint=eastwest;whiteSpace=wrap;html=1;" parent="vT_4UTrxaRrFR3VL8aXK-43" vertex="1">
          <mxGeometry y="26" width="310" height="114" as="geometry" />
        </mxCell>
        <mxCell id="vT_4UTrxaRrFR3VL8aXK-45" value="" style="line;strokeWidth=1;fillColor=none;align=left;verticalAlign=middle;spacingTop=-1;spacingLeft=3;spacingRight=3;rotatable=0;labelPosition=right;points=[];portConstraint=eastwest;strokeColor=inherit;" parent="vT_4UTrxaRrFR3VL8aXK-43" vertex="1">
          <mxGeometry y="140" width="310" height="8" as="geometry" />
        </mxCell>
        <mxCell id="vT_4UTrxaRrFR3VL8aXK-46" value="+ method(type): type" style="text;strokeColor=none;fillColor=none;align=left;verticalAlign=top;spacingLeft=4;spacingRight=4;overflow=hidden;rotatable=0;points=[[0,0.5],[1,0.5]];portConstraint=eastwest;whiteSpace=wrap;html=1;" parent="vT_4UTrxaRrFR3VL8aXK-43" vertex="1">
          <mxGeometry y="148" width="310" height="26" as="geometry" />
        </mxCell>
        <mxCell id="x9nhXS3DZCD5mXqcOqJV-1" value="Relation" style="endArrow=open;html=1;endSize=12;startArrow=diamondThin;startSize=14;startFill=0;edgeStyle=orthogonalEdgeStyle;rounded=0;exitX=0.671;exitY=-0.017;exitDx=0;exitDy=0;entryX=0.308;entryY=0.969;entryDx=0;entryDy=0;entryPerimeter=0;exitPerimeter=0;" parent="1" source="vT_4UTrxaRrFR3VL8aXK-43" target="vT_4UTrxaRrFR3VL8aXK-4" edge="1">
          <mxGeometry relative="1" as="geometry">
            <mxPoint x="350" y="660" as="sourcePoint" />
            <mxPoint x="510" y="660" as="targetPoint" />
          </mxGeometry>
        </mxCell>
        <mxCell id="x9nhXS3DZCD5mXqcOqJV-2" value="0..n" style="edgeLabel;resizable=0;html=1;align=left;verticalAlign=top;" parent="x9nhXS3DZCD5mXqcOqJV-1" connectable="0" vertex="1">
          <mxGeometry x="-1" relative="1" as="geometry" />
        </mxCell>
        <mxCell id="x9nhXS3DZCD5mXqcOqJV-3" value="1" style="edgeLabel;resizable=0;html=1;align=right;verticalAlign=top;" parent="x9nhXS3DZCD5mXqcOqJV-1" connectable="0" vertex="1">
          <mxGeometry x="1" relative="1" as="geometry" />
        </mxCell>
      </root>
    </mxGraphModel>
  </diagram>
  <diagram id="DdZB4rI-2c3HmtjdbYf1" name="Page-2">
    <mxGraphModel dx="1434" dy="1849" grid="1" gridSize="10" guides="1" tooltips="1" connect="1" arrows="1" fold="1" page="1" pageScale="1" pageWidth="850" pageHeight="1100" math="0" shadow="0">
      <root>
        <mxCell id="0" />
        <mxCell id="1" parent="0" />
        <mxCell id="pUUdd5UQNy8CdgNerI3H-1" value="" style="shape=image;verticalLabelPosition=bottom;labelBackgroundColor=default;verticalAlign=top;aspect=fixed;imageAspect=0;image=data:image/png,iVBORw0KGgoAAAANSUhEUgAAAywAAAA6CAIAAADdi0rRAAAACXBIWXMAAA7EAAAOxAGVKw4bAAANKklEQVR4nO3d6VdT6R0H8N+9SchCQoAoyAhENhEFxwmOgIK4MOA5MNrRWjutHqfH1i7T9kVf9M/oi76YtnM605n22JkuqIzbjDMuw4ALCio7SsIOEcgN2ROS3NsXjIw9goAs1yTfzyu43Cf5hfO7D1+f5yYyBoNBpdESAAAAAKwIt8Om0mhZscsAAAAAiEQIYQAAAAAikBKR22ETuwwAAACAyCIlIl3CGrHLAAAAAIgUllEzhe52JMdxYpcAsELQ7RA50O0QUUI1hAEAAACENIQwAAAAABEghAEAAACIACEMAAAAQARSsQtYAmVVB5/+9qvzpw8fPznjmf/5+P0VqQgAAABgDlgJAwAAABBBOKyEPYfDbmtpvP14ZIhh2MSkV553KptY8uMq9Y1/XDJOPn2Y0RrePr6u9a+nm93LWypEptzcTUTU2tomdiEAyy4kuh1zPize/Fs9PEPY9LajTKny5u8TKn5FRH0dtySD/RQMzjyGt3bUXZeaJ2f+KcAySE5OLt5RTEQTE7bBwUGxywFYRuh2iBALavUw3470Gsp5Q5mgVAtKNW8oCxa+Ofu5k+M9RrPnmcPCMpYHkSxWG1tRXs6yLMuyFeXlsdpYsSsCWC6h1O2Y82ERFtrq4bkSNnVjfs0/P3LlFBGR9L9/IKLA93/H5xRJ6s/OPIZN3Hn8UMw3fznfHZTGZ+8q256ToODd4w8fjOKahOUwYZv44MMPFzyMTdx5bK+ksUO52ZChUzKe0Y66y1c7J4LERKdt37djfaJGLmUmxzrrLl1/OEGJO4/tlTR1abYY1sVGBazG+q+aArml29cnqFmvufX6+a+NDoEYVcq23SVbUmNkvGukrf7yDZODX4YXDBHsBbudiFGnFuwq3qKPU5CP62/55vqdHoci7+BPDMOf/v2WRSB2benxt1+1fvHXsy1uInn2gZ8WcNVfMhW7Z7pGZm11zPmwVBba6uEZwhb1Lkg2obDqDf3wxY+qTU42flPFwS0SrnXpagNYLHb1a4aRmrMfX7RTXO6+t/fu6O+50OUTvBN99y7f6xt1kzb3wI93FZqMn/cTsau2bO6rrv7wM59qQ8WRyiNrjdfOfnzFIujyDx4p3dbdc2Uo5rXKylzr5X++b3JGpew+XFXl/uTTpgn8GQLxMfFbqyo3cVf+9f5Dq6BJL36z6gDz709u9/eO7c1MVt+2OJiEzDR+3JaYqVe0dHilSalrff1NFj5txmtkMnbmVsecD+IJzxA2je24yeeXB77/u+lv5x6iS8+MNTed7nEEiYJce2NXYfrqZS4TIlGsNvbQoYNyuZyIfD5fdfXpCdvE/IbyQw/uGO0BIrJ2PRrenR8XzZBPCFoHTVM/t/f1WkrT1VFERCQMtdzvdweJHEajmU92N7VZJgUii7HHWpgcI2Pc63OTxpoumRxBIs/gvXbrO1lpmnv37EhhsHRerNuZ+KyNCaNN5x9a/UTkMN282//Tktykhqv9fdai1GT5gy5tRgbTU9+8uixTL+94pNMn08B1c5DSZrpGmOiZW92JOR+WzkJbPTxD2NR2pNPpuHKxxktMMP8NIpI0fsneOjfnWEahUgYdds+3f4IEl9NFuCBh6U3YJr64fLmqspKIvrh8ed4JjIiCbveTuxd5XiCGYYkoanXO64WbUuMUJPCsSsdy7d+e7PF4p88VfF7vk9YWeGIYhlWr1ZKkHW+fKJg6zMoCdpl8KV4gwLQX63Y2OloVdDqmb9X1O+0+hUbJCsP9fe7N+jVR3Np0ad81k8ll3ZahV4zHp8iH7gz7KXbGa4RVzdzqLsz5sHQW2urhGcKe3o5k689MhTC2/sx8xgpej1cSq5YTuYmIGLlCsTxFAgwODtbV1019saCBwjPLVJKUHYf26O5Xn7lg9vKMduuRY2mzn/w03u12Bwbu/KOmzbugEgAW5gW6nXc5XZJUjZIhp0BEJNPEyD0ON0/8aM+AUKbPciTLTLUjfpvb5DBkZunV2scdA76psc+2/WytzmLOhyW1oFYP83dHvgCeMxltSVu26aNZIpl2vWGDDr8kWDatrW1L8rFJEqVKPsmNWLw8MfLEDetXM/McKFgeto0lbStZr4tiiBhptG5NHBbCYFkstNsF7mHL8CpDUYZWSiRR6wvy9faOdjNPFBzpHVKkvZat7H00EiTBajS5U/LzEsd7+559h/v0o83S6pjzYcnNv9XDcyVs+r8tenpJzP/b94hI9sdfzTE4+Pjm+WuKsr0n3pUHXeNdDc0P01KXrVKApTHZc6c2s6z82FGfL+AZae145MyY50iBu3vuPLNz+8ETZdFSCrjGO+suPbb6cEsYiE+YuH/hnHRXyQ9PvqFgArbBtos1DeYgEdHkUO9wTHZSxzdDASISLKaeQOHr3o5+h0A02z9AZmt1zPkgHsZgMOgS1ohdxoJxHBcfHz/Pk6fi15S5QxjAS2ZB3Q4Q0tDtECEso2aVRhueK2EzQvwCAACAl0dEhDDELwAAAHjZ4P5DAAAAABEghAEAAACIIFRDGO7chMiBbofIgW6HiCIlIo7jxC4DAAAAILJIiShGqxW7DAAAAIBIYbOMUehuRwIAAACENIQwAAAAABEghAEAAACIACEMAAAAQAQIYQAAAAAiQAgDAAAAEAFCGAAAAIAIEMIAAAAARIAQBgDzxq4pfednlZlRxK7ZdeI3B7Ik330BAAAL9LwQJo3NKjv67u9/sDl6xcpZtFCsGWBhGM2rh979ZVlq1PQR9cZDv/7ZvnVRzxm0NHiuvfZa0/Dksj8RwP/D3A5habYQJonL3nv0SIHS4RBWtJ7FCMWaARZOcLTU3vVsLDbopq5fmb6wKHmwrq53BbLR5Jipe8S9/M8D8B3M7RC2pLMc5/2+x7f+WzuU+lZ21ooWtAihWDPAi+DHmq615x4oXt9S0+nRvbYrx3XzVKeTiIgYtb5oT4lhXbyCvJa+5q+vNpgcPEnSq36511fzwZcDPBGRKu+HJ3NNf/u0wZG46/ge/9XbsoLd+WuFe//+29UhnoiIid9+9Gh6+8enGm0CEZEiZ/+J3a7P3r/mL/7JYW3tezXGZ4tiotN3VBZvSNRESRn/WGft+atdEzxJ4rL3lJfkJql4l7n9RreyNK3/o+r7bmKiUwv37DSkxsgE93DLN5/XG+38iv3+ILRgboewNVsIE5y9rZ3EaPQrWs3ihGLNAC/G33ezfuB4UWHyiHlrflTz2SZOICJi4rftfzOP+/LUn7qsgiaj5HsH3mI+OXXT/JxHYnVby7bcv376TzVOv/9JDhKsbW3mok3ZcU0NnECkyshd52r711CAEmZ/IMFr7Wv8vKl31E3avIPH9mw3dl/siyuoqkh7fPGD6m6HZPWr+97ap+T6iYiJza96M8/6+d//bHTKU/ce2b/ffepUoxXrHDATzO0QtnBjPkBocnV9fdudV3l4d2LPtdsjASIiYnTrcxNH79R1Wf1EAYfxRkNvbG5e0vMvc4mt9WqtkXP7Jv3frUUJts62/rgNG1cxRIwmKyeFa2sZnWOpKmgdMI66g0RBe1+PRaZRRzHxWTmrzHdvdNsDJPjGmm+3c98utGVvfmXs7g2jI0iCe6CxzZqUnRbDLPI3AgAQYmZbCQOAl5zANd/seP1gYuMto/fbQ2y0WhV0ODxPTvE77V6lRvVMCGOYpwJP0MrZZ1iCcnc3m3aW5iTeGPds2LhmpPULq0D0vJwUlbCxoCgvVScnXpBE61hLG8OoVMqgw/6kHsHpdAlERKxaEy1JKjl6smiqHFYWsMvkC3v5AAAhDyEMIGQF3C6v4PV4pyMU73S4JPoYJUNOgYhIptEqPHYXTyQIwnfBi1EolXMvO/lMLd1l5TnJ7c6NuoG7XXPcEy1JLTlcpmv6T/W5ES/PaLf96J10IsHj8Uri1AoiFxERyeVyhoiId7vcgf6Gj860eJ/7oAAAYQ3bkQDhQ+C6Hgyvyt+RGSslkqjTirbq7e2tZp54G2dXrk3RSYmIUaS+mpMwj0vfP9jawWcUlGRrTK2PPHOcLFGqFJPcyLiXJ0axJid7NUNEgqW7y5qUX6CPZokkMZn5G6eeVxjvah19pWBnti6KIWKk0auS4rEQBgARBythAGFEmGg695l0d+mPflGhYAP2gdbzZ26Zg0TE3btyI6n8ez/P8djd3gnTo0felLkfLWhu6Zg8sUPZ9GnfnJ9+MWm6fS2rfN/x4z5fwDPS3P7QmUlE/OjNc1+pystP/kYWcHHdLX3DwXgiIoFrqPmMKS3+wcnyaCn5XeOdtRfMnA835gNARGEMBoNWt1rsMgAg/DG6gneOJTW8d7YNn/YKAJHNZhlTabTYjgSA5SOJW5uySiUlIpLF5hTkxj/uH/aLXRQAwMsB25EAsHwYdWpBxf5EbRRLgt823HHh0gN8GhgAwBRsRwIAAACsKGxHAgAAAIgGIQwAAABABAhhAAAAACJACAMAAAAQgZSI/JP40B4AAACAFYWVMAAAAAAR/A8GcgxmfZUtYgAAAABJRU5ErkJggg==;" vertex="1" parent="1">
          <mxGeometry x="19" y="160" width="812" height="58" as="geometry" />
        </mxCell>
        <mxCell id="pUUdd5UQNy8CdgNerI3H-3" value="&lt;font style=&quot;font-size: 24px;&quot;&gt;Villages&lt;/font&gt;" style="text;html=1;strokeColor=none;fillColor=none;align=center;verticalAlign=middle;whiteSpace=wrap;rounded=0;" vertex="1" parent="1">
          <mxGeometry x="40" y="120" width="780" height="40" as="geometry" />
        </mxCell>
        <mxCell id="pUUdd5UQNy8CdgNerI3H-4" value="&lt;font style=&quot;font-size: 24px;&quot;&gt;Tiles&lt;/font&gt;" style="text;html=1;strokeColor=none;fillColor=none;align=center;verticalAlign=middle;whiteSpace=wrap;rounded=0;" vertex="1" parent="1">
          <mxGeometry x="51" y="270" width="780" height="40" as="geometry" />
        </mxCell>
        <mxCell id="pUUdd5UQNy8CdgNerI3H-5" value="" style="shape=image;verticalLabelPosition=bottom;labelBackgroundColor=default;verticalAlign=top;aspect=fixed;imageAspect=0;image=data:image/png,iVBORw0KGgoAAAANSUhEUgAAAy8AAACoCAIAAABmEkaaAAAACXBIWXMAAA7EAAAOxAGVKw4bAAAgAElEQVR4nO3d+V8UV7438FNVvTfQQLOq0LKDoCgouIuiIIISjU7inXizO5Pkldz7yn1e98947p37esaZZJI4mTtjjDuD4hL3FTdkB9kbkJ2G3pteqp4fADVKY6PQ1Q2f9y92F+c03/5Wefpb51QX1NoNG016rcxXQQAAAADALZ6vvmh+QwEAAACY4wSj/5j0Wn7jAAAAAJibxqoxZUgYv3EAAAAAzCZWq3WSn+qHNU8fe/FKpUajeXUjmD5IuJsh4W6GhLsZEu5+yLnH8uJqDAAAAGAWQDUGAAAAwCdUYwAAAAB8QjUGAAAAwCcB3wFMj80Fu55/evH0iT3v75+w5dEfv3VLRAAAAAAuwdwYAAAAAJ9mfzWm12lvX7lw8tDBUz/9eOfqL5M1pUPX7fs4L0b0wmZKkfYvX+1aIpvBIGeJpwmkQ9d/+HlBLPPswUz/xl/z/F2WkpKckpLMdxRzyAwmfKYPcu+EI9z9ZmHOPXuEn96Ez5KVypc9XZEUSmWW9K1c7ueEEHVdKdPZThyOifuwQ3U3rwp6JrtXG0zG/Qn0zl22YMGCtWvWEkKGh7WdnZ18hzP7IeFuxlfCBSEJcVRLXa9thrq/4evPqNmZcw8e4ac94bO2GnvKkpbDpm0efcylbSYcy9w65aStdaC1eYLN3EzFxi+Fn2Lnzp0ymfSF7SaT+eTJk1rda/yxrPEEum/K1ft2mb/CPzcnh6ZpQkhuTs7x4yeGtcN8BzWbIeFuxl/CxVHL1y/u7HzdyuCV3d/w9WfQ7M25h47wM5HwWVuNjV7FX3Tor8akVYQQwbH/Swix7/6aTVrltBqjQ9e//7bfjW9ONzkEgQlZm1cnhUhY00BDRR/v+34maHXaMyVn3iosFAqFTzfabLYzJWdeUYpRgSv/ZW9U3f8eLtNxhBAiSSz4YL3x9A/XbKtHE9gyQR951Oqta+JDfcUCytpff/Ps1YZhljD+8Vlb1iSHy1hDb11ps3Tdwvb/PVlpIpQsImPjuqWRfkLW2F1z68LtFj07USReuMuGtcPf//DDlLvRoev3bbRduSdcsWHZfK7i2N+udrGUT2Rm1tqlqgAJGdG0V924er9VL1m868O0rsN/Kx3kCD1/w/t7U4fOf3eqykSIOKHwk0zNsb/f6GVfeuVs5mGddElajFJKmfvqbl64XD/sYKLyfrfJ+s+DlzpZQgiRpez5ZFHrj0cf6EPW78tmyh77Lk1b6C+yDzXfulhmT9mwOj7Eh7b0VF89fa1Z70nJf82EE0LJIzI2rFkaFSynrbrWm0fP1OjkLyf8uWS+ScYoJ3vh5bA8fn/NeMInzsCIKuutnDi5eOG//D7T3nvvxKkKLZlwGHG5+6+zIo1+vsH9XzoTCxOaD/3j/hBHCCHi+G0fZNvOfXfJsmrfZkFZnSw1LTpA7NB1lF+9dFtt5IjLY9prmaU599wR/rUTPolZW4290Xcn6ZCVBVtUXSV/Pd5ioAOTc3ctZTTV0xeb5+jv7z97/lzBtvzRGp9l2bPnz/X397+iGzdUW9ObuSg+4NEDDUeINHqRylh3rMtOgifpYxlWP7rwSN1nIoqUwt9mrWxpPtfuvyJ/y8K+c3892axngpbkvLVFqmknhFD+y/LzU4YuHPq2xSCK2LinoMD00+Gy4cn+982FXUYFpmWnVl4r+va0wW5jCRW4vCA/WXPp528bhjjf6LXbCwqpIz/dbW/rz45d4HN3UE+FxEaxA9rQWJWkqs4iCI+cP9JeNjDRJwAdvCytu+jUjyU6EpCydW/2mvbWM4/tziOhg5YuUR8//sM/R2SJue/kvzO/+cqpHy8Ncsr0Xe9syGhqHSsIvBoVuLygYLHu6onvHw86ZAFyh45MmPDSXlc+FV6ZsS4ne2FkwlebjftrSgmfMAPXSu6F7YuuPfRzpZEQQij/NGfDiCvdX2Ru+XUDmbVj5Yqk0Ie3e1hCpFHJUSN1JzptJIjQyiVLZCdPHTxtFIQs3bq7YIvub0VVBsWUxzQ38PScP2cOjPCz/yp+uu4OIcS++2v77q+fPn1FF2V0rH9PWWmr3kE4m6b24eMhDxisZkhnR+fly5dHH1++fLmzw5X1b07XUNsRkJiopAihfOISFwzV1fS9IkeOoc6WPpODEIdO3TYo9PERUYGxCcqesjvNOjvhRgaq7tWN5pkKiE8J7y8rbdE7CGfufFQ7FBYX5UtN9uJetMv8Ff4ff/TR55999vlnn3380Uf+Cn9Xe1KMrubqzRaNecRqYwkVGLcopK/sdsOQjRC7vuXOg3ZFcko4pWtXDwVHLhATOjgmhmq9UzUwL1YlJnSIagHpUPdMfM0k+6TifrPOToh96HFjF60IkE+absI9qSpvNzmIQ9/c3MOaW8tqBq0csQ02tw5JFX7CSfu62+slnFLGLQrtf3ijvt/CsjbD4LCZTJxwF4dQVzLm+l7w6P3lloS/OgOTDiNTTeAETI2VjeLElPkCQohP3KJIbV312P8urquqTG1wEG6kr+JerXlBfIT4Nca0KZn1Ofe0Ef71h3HnZu3c2OhKpcGgv1RSZCGUI30LIYR5+AtdWvzKvpREJnXodeax8xbOaDBONuvj9RoaG6Uy2egDV/uYmqta165PCim9aU5ICu2pvjDEETLZfy5RcNKKlcmRARLCsbRMSWtqCSWVyxwGnXmsBWc0GLlQQgjt4+PDhK/Z+3Hm6A9ooV0nFE8ajhftsmHt8PkLFwry8wkh5y9cmMrVBo7hId3Tk2laLpc5DPrx7BGbQTci8ZXSXFe72rREFSbSzI8WqK+0tBiHMmJUkoHACPGT+11Ors5wmEzjL8SyHKGoCWoM6rnd6zCbLU+bcyMWy3jiOZZQ1PR9yEyH10s4LZPLHXq9+dnkhbOEO3+NqWbMlb1AXG7J2/5yS8JfnYFJhxHXU+2craOizr4zRXW9sz8hKay35uLg2BjoMJvHpzQ5g95I5sskzNTHtCmZ9Tn3tBH+DYZxp2ZtNfb8SiV96+RoNUbfOulKX85itjD+PmJCTIQQQoklkpkJ0nNUVFRMscdIW01z9ubE+XXGpMDOskbD5FPuTMSatzcpy4+fPNNjYSnF8nf2RRHCWUxmZt7TPBOxWEQRQghrMpnsHff/t6jG4mo03rXLOjs7b966OfpgSh2557LMGg1GJtJXSpHR3At9/cRmvYklbF9rB7dZFadfIGy53m3Tmlr0abFxKh9Fb13HhOteL77ys23cswKbkkglr2jvuV4j4ZzZbGYCfCSEjC+hOE34c53eMGOuZ9XD95cbEj7hO3p+m9NhhHKp+8RB/uqZo6e6RvvuorjQrkRlZ/njp2dKjEw+HjTl4+dDzCaLY+pj2lTN1pyPNfO8Ef61h3FnZv9K5WtgNS3N2vClGSo5TYhQEZ+WqESeXmLrrK1no1esifdtrWkyv6IxI5WJrZruQQtLKHFoYnwwRQjhBpsbh8KWjeaZ8Y1ZlhRCE0IIN9hQ0x+esS5eKaIIoQRyZVjAK04jvW6XVVfXVFfXvMkrcJqGqq6gtFUxCgEhjI8qM12lq6vtYQlxdLc9kUQtS5C2NXY7CDfU3GKKSF8cOtCmftVu+hVWN6yThi9QCgghlCRiSUKIZ6d0clNNODvYWD8Ymr46LkBIEVqsUCpEThP+tA+vGfOw/eWOhL+AGzGbOf/Q4NHP6SkPI7/u7koDbqi+ojtsWVaSoq2myfS0HT0/JS1SzhAiCk7NWCRub2gfeY0x7TXMwpw/DdUjR/g3H8afN2vnxp7+ZaTnJ8lsXx0ghAj/5/NXdHb03jl9RbI5++MvxA7jwON7lQ1RkTMWqddy9FTXWT9YLS0/0v7Ku8FYW+9fj92cs++9kRG7ubu6rtEQQwhh+++euSzbkv3R5yKHUdNco+5mAwkhhNM8KD5NrV+96+PNcgGxGwfqb57tHRqZ7CxqDu4ybrj8TLEga927+7dIKLu2s6ak6N7ohSvWJ21dfgnhdTee2Akh3GBLq33lCktd+9S+OsdpHl25E5q94+NEs95sGW5tarZEzMgb8UzswN3ic0zWqnd/t1VK27RN14+drZ044U8/FfjNmLfvr9dI+IssjffvJuTkfPo513fvxJEHg1McRl7s/lLLlxsYGyrV6wsjGm6rn007c+aW1pGluz7c4S9mdR2PTl+sMXCETH1McwMvyPm4OTDCU2s3bDTptcqQML4jmTKNRhMYGOhi49E6bNSrqzGYyJQS/hqowIx9vw178M0/az3xVn88mOmEwwuQcDebBQmXJhZ8vHLo2N9ujc0f0aHr39/ld+Pb001O7jHOt1mQc+9itU72eaYf1sh8FaOPZ+3c2IRQh3kYJmBeOD3UM2i2E6F/YkZyYF+5s+vMiTAq+zdrIp778zOcufGX43e7PPW7k54IOfQu2F98cS3zlDRyVcaC3rJrv76Fn2d9i8VrzPmjfa5UY6jDPBIlj8jYUhDqJ6IozqbtflxyvtLpHXhsrZf+0erW6GYf5NC7YH/x5ZWZp4NW/ubtlUGO/pqL/6zyqLsde605f7TPlWoMPJK98+6Jg3f5jgIAYErYgdLD35ROsL33+sEDL28GeCUP+FoCAAAAwBzmxdUYLkV0MyTczZBwN0PC3QwJdz/k3GONrVRqNBp+4wAAAACYTXx8fFxsOVaN+SkUMxYMAAAAwJxjszr9CygvwFX8AAAAADNCpVJNuF2tVj//1IuvGwMAAACYBVCNAQAAAPAJ1RgAAAAAn1CNAQAAAPAJ1RgAAAAAn1CNAQAAAPAJ1RgAAAAAn1CNAQCAZ6DDsj7+sjCOcb39hg8+zY8VOetIKdL3/fvupbLnWgJ4pFfc/VXgH5dVkJNmvfHHI5VG90T0xrwxZq+GhLuTdF7a5o3pMUoJzZr7mx9euvyoy9VbPcNrwhHuuVhN7fUrgh7rdLack3CQ826SaowJSMgqzAof7NFzYvcF9Ga8MWavhoS7FxO5oTBTUnr0wKMBmyRs1c4921f2/OVaN8t3XLMXjnD347gpNLb2tzQR4soyz3hLeBEOco8wSTXG2kZ6S49dfxK5MyHOfQG9GW+M2ash4e5Fi8VCS3+3xkoIsfR3DYykCYV8xzS74Qh3P4cgdPnO1akqfwmnay+78svNNiPHRBd8lj1S9P0vHSwhhMgWv7s/peXg4Xv60KwP9yiuHyhqftZfEJi4KWdtcqiENfXXl/eNbaXDxlsGZ72/hXlQI0tNjw2SUebemuvnLtYNOwhhAhI25axLCZexxp7a203SDVHtfz1ebuIhBe6Fg9wjTFKNcYa26npC+U78F5Y8kzfG7NWQcPeytd29s/Tt/ALbzcrBwNQ1YW0XizowMTaTcIS7nzQmSnTk2HcnjYxy8da923O0B09Vml3uTYes3pG7sOv0d0ebDUzg4q270xhN1YttgtPT/U+cOFisowIX5723ZV17S3GdLSizIDeqt+T74016Jjh1686tUk379L4zD4WD3CPgKn4AL2Lrq7tbbV6wfMOWvJXBQzVV7fqprOoAeAFHZ1WZ2sgSYhusuV9tikxUTWH9jFbGxgd0P7zdoncQzqqpvl8/NMH5iqOz4l6Tzk6ITVPf8IT2D/ChqMC4pKCeB7ebdHbCjfRX3q3V4EQH3OgVV/EDgAeRRm99N0tY+vOB6kHiH7Mmr/C3/iU/Xm7Hlckwi3Bmk2X8oclgIiqZhHqhCUW9uOXpT6QyqUOvNY+dpXBGg4ELeakVazSMz7axLEsoiiKUTCZ16HXjmzmDwYgzHXAjzI0BeA1mQVKCvf5OzaCNENtw8/Ubj4UJ8fNcvhsAgDegZHLp+EO5r5wzmSwc4TjuWQVGSaRSJ+UYZzGbGbmP5FnLl0o5Jx3NZstzHYlYLHatI8C0QDUG4DW44SGd38LEeVKKEML4LExUSTQDEy3EAHgvZsGS9Cg5Q4hQmbwiWdrxWD1CWK1GJ50foRQQQihJZGpSiJPPLnawuUk7Lz1DJacJESoS0pOCXPuU4wabHg+Fp2eq5DQhjF9s+iJnvwJgJmClEsBrsP33iy5JNuf+65cSQghr6KopKqnUYj0FZhNH5537lmV7PilUiDl9e1nxhSoDR4jm0aXb4Tlv/S7JrDNZhlsaGy0RTrr33Cq6JMnN2f+VmDX215WW10e7dnU623en+KIsJ2f/l0K7UdNUpe5yBE7j2wKYHLV2w0aTXqtQBvMdCQAAgEeglJkf7Au/d+BUDa7KhDdgs46oVBOfD6jVapNeJ/NVjD7FVCwAAAATMD8iSCYghBChf1JmSmBve5eN76BgzsBKJQAAAOUTmZm7I1Qhogln03bVnTlbMYTLAMBdUI0BAADYO+4c++4O31HAXIWVSgAAAAA+oRoDAAAA4BOqMQAAAAA+oRoDAAAA4NPYVfw2K+6pAgAAAMADzI0BAAAA8AnVGAAAAACfUI0BAAAA8AnVGAAAAACfUI0BAAAA8AnVGAAAAACfUI0BAAAA8AnVGAAAAACfUI0BAIBnoMOzf//1rgTG9fYbP/1iR5zIWUfKP+PD/3w3Tf5cSwCPJHD6E0o2f+maDSsSIwOllEXTVn615HqTlnVjaK/BG2P2foKAhOzCvOXWa/996JGR72BmPdo/PnvbpmURfoxlsPHehZI7HSa+Q5r1cIR7Lnaw+sovwi4X/paM6y3nJBzkvHNajVHioOhwe3XxDz93m4UhqTve3ZGn+ebnSiPnzuimyBtj9nJMQFL229nzB7r1nJjvWOYCKjBjR35Mb/GfjzSb/RYV7N25Tfv98Voc4TMHRzgfpnBAW/ubGghxZZlnvCW8CAe5R3BajXGW9hsl7aOPHX3Vtd3Z6wN9KeLR4743xuzlWNtIz+2frnZG7U6K5zuWOYDyj1sU2nX3eJPOToim9trD5fuXxMpqK3AuO2NwhLufQxCeuWd92sIAMatVP7h47nqLgWNiCv9t68ixP51rZwkhlHzpb79Y3PTt30t1Ydn79yqu/OFE47P+AmXylm3rF4dJHcbeuoe9Y1vp8PGWIdmf5DF3q2RpGfHBMsrUXXXlzPmaIQchTEDSlvysJfNkrKG7+majbGNM23eHy2b//y4c5B7B+Url84TzI0NGnjzSeNOinzfG7H04Q0tlLaH8oii+I5kT6MCgQGN/v3n0Gaft77ctDwmiiRFH+UzBEe5+0tgY8aGfDhw1CoKW5r+3c5v226Plrq/H06Frd+VFdRb9+VCjnlGmFuxdzgxUvNgmZEVGwNEj3xRpqYDU7R9szWprOllrC161c1t0T/E3hxt0gpBl+b/Jlw20Tesb81Q4yD2CC1fxU/L4LTmx3ZevNHvPirs3xgzwKpRIJLTbbONPOavVJhKLMITCrOLoKL+nNrKEWAcqS6uMkUlREtePcTooPjGw+/7NJp2DcNbByru1E52ROzrKbjdq7RyxaWrrO5kApS9FKROSg7vv3WjQ2gln6Su/XT2Ikxxwo1dVY7QiKW9vnuLRkeIanbcs+HljzAAu4KxWm0AoHH9KCUVC64gVBznMKqzJZBk7qDmj3kjJZBLXO1MymdSu05rGX8CgN0zwH4Q1Gsxjm1mWIxRFEUoul9n1uvFJOM6gxzUu4E6TVmMC5dK39m6WPTx07H6PbbKGHsQbYwZwDTvYPygPChr7bKL8goNEmgGcwcPsQsvl0rHJMMrHz4czmSyEcBxHqKdTZFKZzMl0GWc2mwU+PuP1GyWRSidoyb1caHEm0/MdiVgsxqwzuJHzakwUmrn7nbXsrZ9P12gpkUgkEgoZTz84vTFmAJdx2vrKzvCM1VE+NBH4J6xPV6prm2b/RcYwtzARyzKifBhChMolKxfL2utaLRyr1WilCyKDBIQQSqpalhzq5LOLHWhsGJ63YnWUD00ooX9SRnKQa3fV5AYa6jRjHQnjF78ixdmvAJgJTq/iF8Wv2xzrLyDbP0vZPrqFM5b/439Kmh3uCm3qvDFmgCngdGWnTyvyt/z+/yiEdq26rKi4Qo/lFJhVHB23Ss3pez9721/M6dT3T5ZU6DlCBh9cuBGet+eLZJPOZBlqetxgVjnp3n3j+AXptrzP/0PsMPbX3iqri4ly6feyvbdOnJfn533+tchuHGioaH3iUE7j2wKYHLV2w0aTXivzVfAdCQAAgEegglZ/8tG80j8cqxrhOxTwbpxKNfGZg1qtNul1T6svTMUCAAAwgQtUQTIBRQglDEhetUTZo+7El/LBXVy73xgAAMBsRvksXJW/K1whpgln03ZWFxWXDeE6AHAXVGMAAAD29puH/3ST7yhgrsJKJQAAAACfUI0BAAAA8AnVGAAAAACfUI0BAAAA8GnsKn6hSMRvHAAAAACzic3q6g3rMDcGAAAAwCdUYwAAAAB8QjUGAAAAwCdUYwAAAAB8QjUGAAAAwCdUYwAAAAB8QjUGAAAAwCdUYwAAAAB8QjUGAACegQ7L+vjLwjjG9fYbPvg0P1bkrCOlSN/377uXyp5rCeCRBE5/IgpKXrlqeUJEkI+Qsume1N4+d+3xkMONob0Gb4zZ+wn847IKctKsN/54pNLIdzBzARLuTrQiNit3Q+p8X2ZE0/zw8vm7nSa+Q4JnWE3t9SuCHut0tpxrKOm8JavWpcUvCJBQI8PqyhvnbzXrWL6jmnucV2O0TM62Xzt6Xj1sEwYk5O7OzRvu/qlMx7kxuCnzxpi9GxOQkFWYFT7Yo+fEfMcyJyDh7kUFLN+2Nbq/5PsTrWbfxLw923O0P56qRz02o7ipjNjW/pYmQlxZ5hlvCS8QBS0Ms9ec/duxHosweHH+7rxczQ9Ha3CQu5vzaszSfu9m++hD61BzUx+3wU9OEc+ubLwxZu/G2kZ6S49dfxK5MyGO71jmBCTcrShFTGJo9/2iFp2dkKH6G+XLPkqJkddXYUpyJjkEoct3rk5V+Us4XXvZlV9uthk5Jrrgs+yRou9/6WAJIUS2+N39KS0HD9/Th2Z9uEdx/UBR87P+gsDETTlrk0MlrKm/vrxvbCsdNt4yOOv9LcyDGllqemyQjDL31lw/d7Fu2EEIE5CwKWddSriMNfbU3m6Sbohq/+vx8llflox03D7fMfrQ0V9b35O1OtCXJibMjrmZ82rsKUYaErsqc95g5d1+r9k93hizV+IMbdX1hPJV8R3IXIGEuxUdoAwwDgxYRp9xuv5B+7JgJU2MGFZmkDQmSnTk2HcnjYxy8da923O0B09Vml3uTYes3pG7sOv0d0ebDUzg4q270xhN1YttgtPT/U+cOFisowIX5723ZV17S3GdLSizIDeqt+T74016Jjh1686tUk379L4zzycMXxBs6a4cwgHufpNWY8zCvN/tTJUzlHWw7taFij67u6J6A94YMwB4JEokEtr1tvGnnM1qE4qFFJ8hzQGOzqoytZElhB2suV+d8U6iSlxZ72pnWhkbH9D98FiL3kGIQ1N9v351TMgEv6LiXpPOTgjR1Dc8yV4R4ENRVFxSUM+Dk006OyH2/sq7tRnRYdP5tjwfJY/blB3Tc/3vLbi6jgeTVmOOtrMH/ussLfQJWpixpXCf/+kfLrZ7+l7yxpgBwCNxNquNEQrHn1ICocBmteHSh5nFmU2W8Ycmg4moZJIXC2CKclYSU1KZ1KHXmsd2Emc0GLiXqzHWaBifbWNZllAURSiZTOrQ68Y3cwaDcU7taNovYcvObL+K46fqcHEPL1y4wwVrM/Q1llb1+UYs8PeWG2J4Y8wA4GHYwQGNXKmUjD6jfIOUoqFBDVZxZhYlk0vHH8p95ZzJZOEIx3HPKjBKIpU6Kcc4i9nMyH0kz1q+VMo56Wg2W57rSMRi8dyZBBUELinYs1H66Oipsl7bq5vDTHBaqgiVkTFhvmKaEEIJFQszFoebu7qGPXsY8saYAcBjcbrG6q6w5ZkqH5oIFHFrlwV21LfgEv4ZxixYkh4lZwgRKpNXJEs7HqtHCKvV6KTzI5QCQggliUxNCnHy2cUONjdp56VnqOQ0IUJFQnpSkGsn5Nxg0+Oh8PRMlZwmhPGLTV/k7FfMNqKQFYVvr2JLj5+r01JCkUgoFDJzpxD1HE5XKilJaOrG3B1BMoawjhFtV8PlIzfaPHzJzxtjBgDPxenKz571y9308Vd+QruuvaLkTJUeyzgzy9F5575l2Z5PChViTt9eVnyhysARonl06XZ4zlu/SzLrTJbhlsZGS4ST7j23ii5JcnP2fyVmjf11peX10a5954Xtu1N8UZaTs/9Lod2oaapSdzkCp/FteSxR7OqNMQoByft0Ud7oFs5YefjPF1pxq073otZu2GjSaxXKYL4jAQAA8AiUMvODfeH3DpyqwQk9vAGbdUSlmvh8QK1Wm/Q6ma9i9OkcmYoFAACYBBMwPyJIJiCEEKF/UmZKYG97Fy6iAndx4X5jAAAAsxzlE5mZuyNUIaIJZ9N21Z05WzGEZWlwF1RjAAAA9o47x767w3cUMFdhpRIAAACAT6jGAAAAAPiEagwAAACAT6jGAAAAAPg0dhW/zYp7qgAAAADwAHNjAAAAAHxCNQYAAADAJ1RjAAAAAHxCNQYAAADAJ1RjAAAAAHxCNQYAAADAJ1RjAAAAAHxCNQYAAADAJ1RjAADgGejw7N9/vSuBcb39xk+/2BEnctaR8s/48D/fTZM/1xLAIwlcaCONyXt/b3LXkf/6Z4NjxgOaJt4Ys7cSBCRkF+Ytt17770OPjHwHMxcg4e4kXbAid/OKuCAJzZr7Gu5duPjwiYXvmOApdrD6yi/CLhf+lozrLecaSjZ/6ZoNKxIjA6WURdNWfrXkepOW5TuqueeV1Rjlk5STO9+m5dwRzTTxxpi9FBOQlP129vyBbj0n5juWOQEJdy9m4aZdq6W3D/3hQb9NEr52z96dq7sPXO7CR9XMmsLQbe1vaiDElWWe8Zbwa5Q4KDrcXl38w8/dZmFI6o53d+Rpvvm50ojPTzd7RTVGB6RuzxLf++Xxsh2B7rDWQYEAAAt6SURBVAnozXljzF6LtY303P7pamfU7qR4vmOZE5Bw96LFEqG578mglRBi6evsH0kXCfmOadZzCMIz96xPWxggZrXqBxfPXW8xcExM4b9tHTn2p3PtLCGEki/97ReLm779e6kuLHv/XsWVP5xofNZfoEzesm394jCpw9hb97B3bCsdPt4yJPuTPOZulSwtIz5YRpm6q66cOV8z5CCECUjakp+1ZJ6MNXRX32yUbYxp++5w2Wyff+Ys7TdK2kcfO/qqa7uz1wf6UgTVmLtNWo0xwSsLMqzXDpVpU9PcFdCb8saYvRhnaKmsJZRfFMV3JHMEEu5etpbbt9J+U/iW9Vr5gHLZ+nktF463Y2JshkljY8SHfjpw1CgIWpr/3s5t2m+Plptc7k2Hrt2VF9VZ9OdDjXpGmVqwdzkzUPFim5AVGQFHj3xTpKUCUrd/sDWrrelkrS141c5t0T3F3xxu0AlCluX/Jl820Datb8wLCOdHhow8eaTBQe5+k0zvChesy18ycLGk1uA9NbI3xgwAHsvWW32n0hSRuWnr9jUhmqrKNh2Glpnm6Ci/pzayhFgHKkurjJFJURLXTz7ooPjEwO77N5t0DsJZByvv1k5UWTg6ym43au0csWlq6zuZAKUvRSkTkoO7791o0NoJZ+krv109ONdKEkoevyUntvvylWZcXccDp9WYJHpjQXTb6UstZneG82a8MWYA8FiUNDb/X3MDyv/xhz8e+K9vL2qSdn2wWYVv5c0w1mSyjNW8nFFvpGQyieudKZlMatdpTeMvYNBPdGrOGg3msc0syxGKoggll8vset34JBxn0M+ttTpakZS3N0/x6EhxDc44eOFspVKamLE0KMj67hephBBCC6USeudXkY/Pfnuq3mOrZm+MGQA8Fx2xKMlW+2PVgI0QMtR45YoqeWfS/MvqVnxTewbRcrmUIgaOEEL5+PlwJpOFEI7jCPV0ikwqkzmZLuPMZrMg0EdCiJEQQiiJVDpBS+7leoMzmZ7vSMRi8dy5HECgXLpjzzr67qFjj/ptfAczVzmrxszVp/7YNP5DSpnx3u6A2z+cf2z05LLGG2MGAM/FDQ9pFVFJ8x/0dZo5xid60ULp4KOhubaA5W5MxLKMqMfXWgy0csnKxbL2K60WjtVqtNKkyCCBus9OSVXLkkPpiW80wg40NgyvWLE6quFSq5HxT8pIDqKHXPmt3EBDnSZjtKOB8otfkRJK66b1fXkqUWjmrrdXWG78XPJYS4lEIsJxDrvNgQkyN3N6Fb/dYjSMP6akVgdnNxuMFs8+I/TGmAHAY7F9pSfOS3LzP/5aQnGENTypPFH8aBgfUzPK0XGr1Jy+97O3/cWcTn3/ZEmFniNk8MGFG+F5e75INulMlqGmxw1mlZPu3TeOX5Buy/v8P8QOY3/trbK6mCiXfi/be+vEeXl+3udfi+zGgYaK1icO5TS+LY8lil+3OdZfQLZ/lrJ9dAtnLP/H/5Q046PTvai1Gzaa9FqZr4LvSAAAADwCFbT6k4/mlf7hWNUI36GAd+NUqonPHNRqtUmve1p94S8jAQAAMIELVEEyAUUIJQxIXrVE2aPuxHUu4C6u/GUkAACA2Y3yWbgqf1e4QkwTzqbtrC4qLhvCqjS4C6oxAAAAe/vNw3+6yXcUMFdhpRIAAACAT6jGAAAAAPiEagwAAACAT6jGAAAAAPg0dhW/UIS/vQYAAAAwbWxWV29Yh7kxAAAAAD6hGgMAAADgE6oxAAAAAD6hGgMAAADgE6oxAAAAAD6hGgMAAADgE6oxAAAAAD6hGgMAAADgE6oxAADwDHRY1sdfFsYxrrff8MGn+bEiZx0pRfq+f9+9VPZcSwCPJHD+IyZ222e/SZGMPWOHSv9x8HI365aoXps3xuz1BP5xWQU5adYbfzxSaeQ7mFlPOi9t88b0GKWEZs39zQ8vXX7U5eqtnmHqKOm8JavWpcUvCJBQI8PqyhvnbzXrMKJ4DlZTe/2KoMc6nS3nJAzjvJukGhPJZXTzuT8drx0hhBCOYx2ePwh5Y8xejQlIyCrMCh/s0XNivmOZC5jIDYWZktKjBx4N2CRhq3bu2b6y5y/XcMIxY0RBC8PsNWf/dqzHIgxenL87L1fzw9EaE99hzW4cN4XG1v6WJkJcWeYZbwkvwjDuEZxXY5RMLrPqdRa73eHGeN6MN8bs3VjbSG/psetPIncmxPEdy1xAi8VCS3+3xkoIsfR3DYykCYV8xzSrjXTcPt8x+tDRX1vfk7U60JcmJpS/M8khCF2+c3Wqyl/C6drLrvxys83IMdEFn2WPFH3/SwdLCCGyxe/uT2k5ePiePjTrwz2K6weKmp/1FwQmbspZmxwqYU399eV9Y1vpsPGWwVnvb2Ee1MhS02ODZJS5t+b6uYt1ww5CmICETTnrUsJlrLGn9naTdENU+1+Pl8/+2hvDuEeYpBoTSUSSxPz98QIBsQx31pVeutU45OFFjjfG7N04Q1t1PaF8VXwHMkfY2u7eWfp2foHtZuVgYOqasLaLRR2oDNxEGL4g2NJdOYSEzzBpTJToyLHvThoZ5eKte7fnaA+eqjS73JsOWb0jd2HX6e+ONhuYwMVbd6cxmqoX2wSnp/ufOHGwWEcFLs57b8u69pbiOltQZkFuVG/J98eb9Exw6tadW6Wa9ul9Zx4Kw7hHcF6Nsd3X/v6XUofJZKNlwfFZ2/P2UIbvr3V7dG3jjTEDTIGtr+5udVzB8g2htJxTXzvTrp/Kqg68Nkoetyk7puf631tw4dFMc3RWlamNLCHsYM396ox3ElXiynpXO9PK2PiA7ofHWvQOQhya6vv1q2NCJvgVFfeadHZCiKa+4Un2igAfiqLikoJ6Hpxs0tkJsfdX3q3NiA6bzrcFMKnJFtsdFqPJxhHiMPXXXb3/RLFQFUi5LbDX5I0xA7hKGr313c3+lT8f+PYv/+/gFU1C4W83RuJLYjOO9kvI2b3Fr+L42Todqt8Zx5lNlvGHJoOJSGWSF0dxinI2rlNSmdSh15rH9hNnNBgm2GWs0TA+28ayLKEoilAymdSh141v5gwGI/Y1uJGrd7igGJqz22wzGst088aYASbBLEhKsNffqRm0EWIbbr5+47EwIX6ey3cDgNchCFxSsGej9NHRU2W9GE3cgZLJpeMP5b5yzmSycITjuGcVGCWRSp2UY5zFbGbkPpJnLV8q5Zx0NJstz3UkYrEYZ/LgRk6rMUo+Lz46xFfEEELLQhdnLw/pqmvWeva5gjfGDOA6bnhI57cwcZ6UIoQwPgsTVRLNAK5jmkGikBWFb69iS4+fq9NSQpFIKBQy+IyeYcyCJelRcoYQoTJ5RbK047F6hLBajU46P0IpIIRQksjUpBAnn13sYHOTdl56hkpOEyJUJKQnBbk258ANNj0eCk/PVMlpQhi/2PRFzn4FwEyY5A4X0ogV63MLfCUMsep7mx6dOvVo2OMLG2+MGcBVbP/9okuSzbn/+qWEEMIaumqKSipxvjFzRLGrN8YoBCTv00V5o1s4Y+XhP19oxbWoM8fReee+ZdmeTwoVYk7fXlZ8ocrAEaJ5dOl2eM5bv0sy60yW4ZbGRkuEk+49t4ouSXJz9n8lZo39daXl9dGuXZ3O9t0pvijLydn/pdBu1DRVqbscgdP4tgAmR63dsNGk1yqUwXxHAgAA4BEoZeYH+8LvHThVg69twBuwWUdUqonPB9RqtUmvk/kqRp9iKhYAAIAJmB8RJBMQQojQPykzJbC3vQtXCoK7TLJSCQAAMEdQPpGZuTtCFSKacDZtV92ZsxVDuAwA3AXVGAAAgL3jzrHv7vAdBcxVWKkEAAAA4BOqMQAAAAA+oRoDAAAA4BOqMQAAAAA+jV3Fb7PinioAAAAAPMDcGAAAAACfUI0BAAAA8AnVGAAAAACfUI0BAAAA8On/A28WJ75N0AqlAAAAAElFTkSuQmCC;" vertex="1" parent="1">
          <mxGeometry x="18" y="320" width="815" height="168" as="geometry" />
        </mxCell>
        <mxCell id="pUUdd5UQNy8CdgNerI3H-6" value="&lt;font style=&quot;font-size: 24px;&quot;&gt;Units&lt;/font&gt;" style="text;html=1;strokeColor=none;fillColor=none;align=center;verticalAlign=middle;whiteSpace=wrap;rounded=0;" vertex="1" parent="1">
          <mxGeometry x="40" y="530" width="780" height="40" as="geometry" />
        </mxCell>
        <mxCell id="pUUdd5UQNy8CdgNerI3H-7" value="" style="shape=image;verticalLabelPosition=bottom;labelBackgroundColor=default;verticalAlign=top;aspect=fixed;imageAspect=0;image=data:image/png,iVBORw0KGgoAAAANSUhEUgAAAygAAAA3CAIAAABo/vl1AAAACXBIWXMAAA7EAAAOxAGVKw4bAAAVgElEQVR4nO3d+V8TaZ4H8G9V5T64wqkcggiogAh4oohy2tJ2t91OH9OuPeN0z073br9eOz/tP7E7u/t6bU9377R2z0xfKngrantriweoyA0BQeQmCSEnSar2B5SxSVUIlZCQ8H3/RGKq8ny+z1MPT6qKSOTm5gJCCCGEEJp/AlV0rL/bgBBCCCG0KJD+bsCcaTQafzfBPzD4YoPBF5tFGxwWcfZFGxwWcfbAW3ghhBBCCAUoXHghhBBCCPkILrwQQgghhHwEF14IIYQQQj4i8HcDPFJSueflhz+drt67/yPWVx755kuftAghhBBCiBOe8UIIIYQQ8pGgXXhN6Md/vnLh2HeHjn//ze2rF129lIzZuu/AzuWiGU8TobnvfbonWzaPjZyWmbk6M3O1p3uZDkLGFP7m48pU6h8/zBOPS+ed4AFozsE5Sh1weAT35hie7yOCmzeHujAm79V9n/zLJ5/+rjRV7PRw4fEwu1vzyYIswqKd32ARZ3cneGBfanQ2fUlRKJVZ8iqY8o8BoKellurrBYeDfRta23LzqmBw0meNnCE+Pn5LwRYA0OnG+/r6+O/I90E8e0evBQ80fIL7e5R6Bfa4V4IrVhZsjXhy+IsbA7SAcIAi+xcPFxrfdPqMmiwEATraBdHpK4iuliGbJzvxfXavNNtzbgYP2jNeltwyOreEkSoYqYLOLXFsfJX7tZOj3epBs9PTzDw2b1pYaFh5WRlJkiRJlpeVhYWGebAzjiDziH/pvBo8kPAN7vvO9TLscS8FJ5VhIfRI/5ANGIednvlwYfFO9tnnkwVXhIAd7eLk/MKsGI/OrPsjuxea7Tn3gwfbGa+pm+tPfPe1ceUmABAc/U8AsL/1R3rlJurWcfZtyJjC/W+G3PjidKdDEJFeVLJ5ZbSENo22Pxr2wdpLN6776uDBuW1DRGx8793klr/9UK9nAAAkGZUfFBpPH7xm2zwVpItlG3ny5oqCtBilWEBMjrTePHe1XUcDFZZWVFqwOk5GG4ZaatXSrct6/3aswQSELGH99q05iSFC2jjQdOvCz10TrJOZB6XjE3zqHfcVU3Ut0uzc5SopYR5uuXnhcqvOwRoQYgr3FVP1bcqc3GVhIrtWfeunenvmts1p0QrSMth49fQ19QTjdlgv4R/8eedGuhFqfrrbL8FfwtJOhuNYuNLn8G23usA7OKFI3FC0JScpXAJWTe/jG1fvdU+Ik7dU7MgMFQtKPvyw8Nmtk40RhS89PHyq2cjem5wHDhDyhPXbCnKSo+TkpL775pEzTXqp10rHOzvXfMKWTvrLmiyIIvAN7sE8xjJaaKCSd/5+x+TJQ5f6aAAAWebe363q/ubI/YlotlJYk4peL1shFy9775832IfuVh9/NM7jdyD/Ae/cC3K2UKQytaC4cFWsQkgxlrG2G5fVccWeN9tz7gcPtoWXR3+9SEZvrCxN6j/7dVWXgYxYXb4nh9I0eq9tXsNom5uGNqxKC39wX8MASFNWJRlbjvbbIcrFNhZdz4MLD3qGTRCa+dqvizZ2qWt6w9btKl02XPP1MfUEFZld9nqpVNMLAETY2l27MrUXvvuyyyBK2L63stL0/Q/1OldD2ZelI6PW5g6cOP7NWT2EZ1a8W1zQ232mzcoaEICMzMnuqao6eNIqyyh/e9fbS9VXjn9zaYxR5e15e9v6zu5Lz0LmHNbvZg3VR89vd/sFezs5jgUiLDcgQrlARORX7lqtufTjl+1aRpmy5dXK14jD39d23zxxjtq/R3r1/2q6HQAAv3zoojdZD5zJiPzKyiz91eqv2sYcsnC5Qw8LYDxwzScc6WbWJICLwHseC2MdLUOuisxWimtn78buS2n+7scG47xnnYFw7gX2Q2B06bqSNMPFv36hNoMoJCrEMTLa7r9m8xJsC69pZMttOq/M/tYfpx/OvokqJTVssL66e8IB4NA017VtTHGxlPGOsNCwN9/cIxaLAcBqtVZVVevGdbNtxOjbm58W5Gao6n4eBcWKjHhty9VhGghX2zi0fc9PhOl7noxtS1GIiIjUdNVg/Qm13g5gH318tyU/OQYAiPC0zLiR+nNdEw4Ac9+DZu0HK5KVDx7ouWcdHqXjFXwK/ezRPbXeDgDato7+7XnhcgKsjHPAqVo9e/yw1+QAmFCrB+l4U33T2CQDMKbu1m6MDxESpjmH9ZAHwafNEgrAOq/d7ZfgnO1kOxY4X+zlTG7hF5yIWLEqerj+dLvWBgATXbfv9/5ua2bc3SGXN8y4DM5y4BDKFatiRurOtI5YGADDmA6IiCwvjgd+2bnmEzfH6kIoAu/RznMeM3OMlgEXb8U2kXrjJlKeA17l1AuqbNZQlw06vThr9eplusYnY/rhUQDXv/t8xv3gwbbwmrrUaDBMXDp7wgKEI68UAKi6i2TtqVm3JSQyqWNCb35+bDFGg9HVOSTv0I3rzl+4ULlrFwCcv3DB3V9FJvXj7i2FK6Nrb5rTV8YMNl7QMq4Hnyhq5bqNqxPDJcDQpExFapqBkMplDoP+xW1DjNFgZGIAgFQoFFRcwbsHNkz9Aym064Wu/06IR+l4BgcAcJhMLxpN0wwQBMkecOrFZrNl+rWM1WJ50UaGBoIgeIT1kAfBp80Sar67mx8Pg3O2k+1Y8H23usAvOCmXyxyGiem7+mwGvVWilJIArq54uQzOcuCQMrncMTFhZtzbw5zxy841n7jZtoVQBL6jne88xjlaZiBe+i3BOpF6Ac8B79wLHKGYvvqqI8b8dev3/rZY31l3/ebDvoVx86v7wYNt4fXypUby1rGphRd565g72zIWs4UKU4gBTAAAhFgimZ9GztDX13fz1s2pH9zeyPqkSV1ckrG0xbgyoq++w+D6kxiVUPDmDtXDqmNnBi00EZr/9r5kAMZiMlNLpvOCWCwiAABok8lkf3rvbyeaLO62hl/peAUHAGCc0rIG5Hrxy3iE9Rzv4NNch5rv7ubNk+Dc7WQ5Fjhf7KdPxjyC00aDkUpUSgmYOriFyhCxecI0y31GroM7DxvGbDZT4QoJwItLNF4fDzyyc80nbrZtgRSBR3D+8xjnaGEY5h+jnpBIX56ZWffplTPdfDrduRe4DwHrSNuts223pTE5pa++scP45ZmhBXIXgZvBg/avGnmgNV3q8bic9UlyEkAYmpabofJVeRobmxobm+a0ia2vuZVOWVeQpuxu6pxtvU9JZeJJzcCYhQZCHJORFkUAADOm7tDGrp3KSymXr10ZTQIAMGPtTSNx67emqUQEACGQq2LDZ/mwx7t0PIKzYg3oDh5hvcJbwVnNd3d7gndwF+10Phb81a0uzDU4o2l/3B+Zu2l5qACAUiRtyEvStzQPzrLwmmtweqyjdSwmb/OKcCEBpDhUFSqah9LNNTvXfOJmuoVThLkG5z+PcY0WWq/TS+PiVQIAICQJ2enRrmdmxmo2M2ExUZ6fdJhzpzv3AkcoQhm9NExMAtBm7YDGTFAU4b1me86d4MF2xmv6vwx6+dSX7dPPAED4Px/PsrFj6PbpK5KS4gOfiB3G0ba7De3JifPWUo85BhtbJj/YLH14uHfW6/KT3feup5aU7XvfarWbBxpbOgzLAYAeuXPmsqy0+LcfixxGjbqpZ4COAABgNPdPnSYKN+85UCIXgN042nrz3JDW6uojhb9Lxx7QHTzCLnjz3t1+4aKdzsdCoIRygdE9PHNKULT1nY9KJYR9vK/p7Im7g7N+Q9Vcg9Ojd07VUEWb3vl9hZS0jXdeP3qu2f+l45pP3EwXsEXwYB7jGi2aB1duxxTvPpBhnjBbdN2dakuCyx1ZOu7dSS8r+/BjZvhu9eH7Y77rd7ZeYA1FyhI27Xx9qYKy223mkY4Ll9st4PBbs3khSite8Xcb5kaj0URERLj54qkl15TZF14L25yC80BErN/369j7X5xsXmBf0jnfwReseQ2+YLsbsMcXpUWbfdEGh0WcPdjOeLEK9CXXvKHCl8SR2sExsx2EYRnrV0cMP+zn+uJfYXLxrwoSXvqvVhhzx8WqO/0L4csKkVvm0t0IIYTmR5AvvHDJ5RIhT1hfWhkTIiIIxjY+0Hb2fAPnN9XYui992+3T1iEvm0t3I4QQmh9BvvBCLtn77lQfuuPvViAfwe5GCCH/w79qRAghhBDykcC7uR4hhBBCKEAJNBqNv9uAEEIIIbQoCEJCQ/3dBoQQQgihRQHv8UIIIYQQ8hFceCGEEEII+QguvBBCCCGEfAQXXgghhBBCPoILL4QQQgghH8GFF0IIIYSQj+DCCyGEEELIR3DhhRBCCCHkI7jwQgghhBDyEQH7s2EriirLcidv/O/hBqOPW8RXILbZKxZtcOQVguiMdFLdNGhz+SoytvCf9ipufHFWPemjdrHgGuoszxPSJdmbtuamxYdLCKuup+HG+VtqPe2XVnsBa3AyNLWofNuapUrKqlHXXT5/p8/kzzbOl0WZnUp95Q+/ypQ8f0Rra789dHmABlHk6o2b8tMTIhVCwqZ/1vxzzbU2rcOvLfU+juzB1enOCy8qPL3otaK4scEJRuyHBvESiG32ikUbHHmLOGXdtuxnT2dZeAni12QIWs/1+G/VxTXUOZ4XRS6LtTed++vRQYswKmvXWzvLNQePNAXiRM0RkAjPf6UiZeTsV9XdZmXGzr2vlo1/c7w1EAO6sGizi+QyUl3z56pmKwAAw9AOGgCAlMnp3mtHzvfobMLw9PK3ynfqBr6v1zP+bayXcWQPrk53XnjRNutQ7dHrzxLfSF/hhwbxEoht9orFGpwMWbGlpCgzTimkGMto67XTNe2ybfvLBHVN8pz85RFix3hv/ZWLN58YGQBCnrhxR2FuYoiQMfU/vlHz/MwHIU8p2LUlI0YpEhC2kdbrpy+36SC2aP8O2+U7wg3b85YyDw4fujwQXbS/lKprVa7NTQkX2zSdNy/et2Vu35oeo6DMA4+vnLzSqWe4dlVK3W+SrclLjZQR5qGm6zU/teg8/nTK+l7O1YDUGc+06oGlDtLl2/fsTFeIU97/ZKNjqPZIVQPjvCEDIE7OTLe1/PjM7pvK/8efvnIKzjXUOZ63Pv35/NOpHx0jza2DRZsjlCSYAvCcF3tAInR5RszAvRNdejuAtvXGw7W/zVwub30cXOe8F2t2QiaXTU7oLXb7LycMS+/dm71TP05q1Z3DzLYQOQHBtfDiyB5kne688GIMTxpbgVAm+aE1fAVim71ikQanEtaXZxhqDn3WaQZRSFSoY4IBGZCqnDXyo9V/OWEURK995Z3d5fpDxx4ZQvMqX83S1vz1c7VBnFj89u7dpm+/rdMywFi0PXU19U+GTRCatWffjs3qzrM9AKQqvyTn4dXqP58w2GxTnzIjc9dIDh/9y3GLbGXFu7vfXdpx+djBn0ZpVf7e97ZvaO+62Edz7CoqLy+suvrQKT0RkbXz/dKtvV2nWqweRmdp9nl6ZjXIhOKZ9SHC8tnqoL56unbJBylNf//+oREAqKQSp8ICgCwta5m28bthGqgkX1SeNTjHUHfjEBDGxUdZBhq0AbjqAq6AZLgq3Dg6ann+Gv3ImH1tlIoEY2CG5LBYsxMiiUiSseujNIEALLq+ltpLtzp+cUmRkkanbtqwZKzhzkjQhH6OI3uQdTreXI8CDz2hHRfHZ2YmR0pgUj88Ypz6yEc/a7j/xOAAxjr8sLbRnJCeKCYi0rOXjNz/WT3hAMb0tK5JG5eeHEIAADi0T9XDJgeAQ9/TPSZUKkQAAECNN16+rtaYrJO254c03fe4vsfoAMdEp3qQNnfVPR61MmAbU3dppGGhQu5dOfoe3e3U2wFsmtb2Z2RYuILwPLvzezlXw/kZF3WYtbBEaEb2ksGGFh3jq8p7XqV/IOQrdhQvH7x+vcuPN6d5HyESCe226cvDjG3SJhQJvTC+AkDwZ6cHrv39/z7/8vP/+u/Pvqy+b0rduXdLHDX1T9SynR//27//8ZMDFUm6e9ceDdv921Lv48geZJ3OfnM9QgsZo6k78oNx3YaN72wsGe+4f/X6g6cWAKDNphcnlBjjhAHiZRJKoZRTcVvf/2gTAAAQpNCuF4oBAETRqzZsykpUiYFmKLmKHGuaOogdWs2MU/e0yfj8cxZNM4zVYnn+zzTDAEEQ3LuijQbzi33Q9NRrPcXyXizVcHqmn7MOsxXWBJGrVkf23Gkz+L7yHiND0kvfKA55VHW8JbiuxwBjm7RRQuGLh4RAKLBN2oIrI5fFkN1hMZoAABymkZar91Z9kpsUcX1ghAFwPDn32Z/OkUJF5LL1pa/tCzt98KfeoPpIwZFdE1ydjgsvFJAsI603Trfeksaurdj9Zonx89PjAKRMISXAwAAAoQhRgNlkcZiMJnvv3a+PPbb8YnMqceveElX9kapTAxaaCF3/3gcpfFvixV3xfq+Z1TjZNuOZL26z1wEImDF3zdzVGX3WKmn7pW4L1wv8V/lZCCKyX3ljM3nvyPGGEdd/shmA6LFRjTxJJYFnJgAglJEqkbZZE5iXXeZqsWUnKJJ56WQPAABtMwx31D5ek5cXH0b2Di+C7EHW6XipEQUeQhkdHy4mAWizZmDMQlIUAQBAxWfnLZNTAKLonA2Zkt7WHisz2tY4vGRDYbpKRAAQAnlkXIQYACipTDKpGRi10EBIYlemR/E/GeXFXfF7L+dqkE7PAEcdgLGaTEx4TPTUX28770qUkLUSWh/1Pp/2F1TlXRFFr3vtzU10bVVNyzghFImEQiEVsNclWDD6jsb+2PwNSQoSBKErtqyNeNraFaA3Gs9V0Gcn5EvSUqKVIgqAlMVkFedH97eoxxkQqhKXxyrFJAAQwtBl67PizP39uoBdfLDiyh5knY5nvFDgIeSJBbvWLVWQDrvdNNJe81ObGaIAzGq1NeetA6+HS+jx3rqTFxoNDIDm7omTxLYtv/qoTC4Am3G09fqZQY11suvOlRVlFfv3W61280BDc7shlW9jvLgrfu/lXA2LfO3M+jAO1jowYOm4U7uyouIP/8oM1R758emMXfUsLdhmajo88GJyX1CVd0GUunn78lAB7Pxw1c6pZxhjww+fX+gOmi89YvQPz50LKd9x4NMQoV3f++jsmccTAXvhZY6CP7s0YV1heaVSQsHkxFDng+PHH+gYAEISs2Z7+e5IGQW0wzre33758I0nQXadkSt7kHU6sb203N9tQMhjZGzRb94Kuf7nkx1B86s1QGDlEUJoLvBSIwoa3rh5HfGBlUcIIXfhwgshhBBCyEfwUiNCCCGEkI/gGS+EEEIIIR/BhRdCCCGEkI/gwgshhBBCyEdw4YUQQggh5CMC22TQfQEbQgghhNCChGe8EEIIIYR85P8BSkfWRQE5AIEAAAAASUVORK5CYII=;" vertex="1" parent="1">
          <mxGeometry x="21" y="580" width="808" height="55" as="geometry" />
        </mxCell>
        <mxCell id="pUUdd5UQNy8CdgNerI3H-9" value="&lt;font style=&quot;font-size: 24px;&quot;&gt;Buildings&lt;/font&gt;" style="text;html=1;strokeColor=none;fillColor=none;align=center;verticalAlign=middle;whiteSpace=wrap;rounded=0;" vertex="1" parent="1">
          <mxGeometry x="35" y="700" width="780" height="40" as="geometry" />
        </mxCell>
        <mxCell id="pUUdd5UQNy8CdgNerI3H-11" value="" style="shape=image;verticalLabelPosition=bottom;labelBackgroundColor=default;verticalAlign=top;aspect=fixed;imageAspect=0;image=data:image/png,iVBORw0KGgoAAAANSUhEUgAAAykAAACnCAIAAACaWoQIAAAACXBIWXMAAA7EAAAOxAGVKw4bAAAgAElEQVR4nO3d+VsUd/ov/Luq94WlAdlk31EQFWRREBRFXBONxiRjJiZmMpnkysycOc91rnNdz/M3nPOd+c5knyROYoz7ghgTFxQ3RERl35pNdrobel+r6vkBMdBdjc1iQ+P9+gmquz71rs9ddN9d1d0QufkbACGEEEIIvXgGrZqc7wwIIYQQQi8R7L0QQgghhNyHa9Cq5zsDQgghhNDLgusfGDzfGRBCCCGEXgrKoQHPu+aoUqnmOwKaFaygp8MKejqsoKfDCno6z+u9EEIIIYQ8F/ZeCCGEEELug70XQgghhJD7YO+FEEIIIeQ+3PkOMCubduyZ+OuVC6f3vfMB6z1PHP7SLYkQQgghhKaC570QQgghhNxn0fZeWo36TtmvZ3789uzRw3evX57qrmRQ3tuHtsby7RYTPqvf+vOeFeIXGHLxSUlZnpKyfLajPKsIGbT+3Y92xHF+++EFwWNg3NxUEM2faVfQycGP5ssMKjiXD48v+sF2sXOxfJ59zdHRs2uLPJHYlF7MbPkIALoaKzg93UBR7OvQI423rnMHLG4LuViFhYXlrssFgNFRdU9Pz8wHcn9F8BgAgDmsIJonM6kgHvwLCf4NejTXy7doz3uZVhfRqzcxIikjktKrN1HZO53f16LokA8YHRYzLzDe4uPr47ulqIgkSZIktxQV+fr4zmIwJxV5gfAYmNsKonkw0wq6/88NscO/QY82rfIttvNeY++1P/fjd/rkHADgnvw/AGDb+zc6OYdz+yz7OmTQ+nde8775xYU2iuuXWLBpbXKgkDYoWh4PvVRPvbM0qh799zffTG8dwi/7rTejG7//qVrDAAAIk3YcXK+/8M0N69qxirSzrCOJXlu8LiHIS8AlLMNNt36+3jJKA8c3oWDzuuUhYlo32FghF+VFdX9/psYAhDg8c0PeyghvHq3vr7/96512Lc2WBI+BmVUQAMig9W8Xch40ilasjvUXEcahxlu/XmsapVgrBUHr3y7kVDd7rVwd5cu3jchvX6m2peSvTQiUkqaBuusXbsi1jMtVQ5PNvIJP/9wCXKjOi/kDRAAw4wpOwDLhjJOH2bIeCqszp6ZVvsXWe83q84xkYPaOzZF9F7871a4j/ZZv2bOSo6qbu2zIHjPSUD+YtSxB9rBKxQCIYpZF6htP9tlgyRTrmEa7Hv76sGvIAD4pr/yuILtdfqnbd832zVFDl747I9dyAlYUvbpZpOoGAMJ31fbtKSO//vhlu44fvmHfjh2Goz9Vj07VTeExMAPkklWr+8+dPXxRA7KU4jcL13V3lDabWSsFQAasXNF16tQ3583ipC37t+9fKi87e/iqkvFP37M/P7Ot42qv97SrhubKc6vTQ7/YP0A0G+wT7uRhlvBdjdWZP4ut93qGbLxLpxfZ9v7t2a/PX8U/Js53oPp0h5YCoFQND5qzY6ZoAtAkvj6+r722RyAQAIDZbD516vSoevR5KzGaloYn61Yn+T+4owBpfFLYSOP1IRqIqdahRnqeng7TdHUq82OkfMIvLtF/oPqcXGMDsClqKxszooMAgJAlpIQMV//crqUAjD0PG0YOxkd7PXyocf7o8jIfAzOq4Bi69/F9ucYGACPNrX0b0mUSAsyMY6UAAIDprX3UbaAAtHL5AB1mqK5XWhgApbxjJDvMm0cYpl01NGYWFXzmOdUBML/QP8CX3Cwr6HTC2R5mnd75he3dojet8i223mvsmqNOp7168ZwJCCp9MwBwHlwmK0qeuy4hFIsorcb49IGB0ev0U52AQZOMqkd/+fXXHdu3A8Avv/7q6kOGQV7bkbs+ObDiljExOWig7tcRBqbsvfhLktdkL4+QCYGhSbE/qWoAQiQRUzrN+BtWGL1OzwQBACmVSjkh6948lDV2A8mzaXiCKeO8zMfADCsIAEAZDOOzT9MMEAQJrJUau7PRaHp2X8ZsMo1PNkMDQRAzqBoaM4sKPvOc6rzoP8CX3Cwr6HTC2R5msTpzblrlW2y918RrjuTtM2O9F3n7jCvrMiajieMrFQAYAAAIgVD4YkIuVj09Pbdu3xr7weWVzJ318sJNSUsb9cl+PdWtuqlfEnPC17220f/RqTOlAyaa8MnY/3Y0AGMyGDmhzwoHAgGfAACgDQaD7cn978/Vm1xN85IfAzOqIAAA41A21ko5u/NEM6gaembGFXxm6uq86D9ANJsKOp9wlodZp3ee8rIDmprr5Vu0n3OcAVrVLleHrMyMlJAAPJ+E1Un+OD3TVFdXX1dXP61VrD0NTXTMmnUJXh31bc/7sBVHJBZYVP1KEw2EICgpYQkBAIxS3joSvGqscByv2FXJgSQAAKNsqR8OycxL8OcTAARX4h8se87rOjwGZlBBVqyVcsUMqoYmmqsKsnrRf4AIZlHBKSbc8WEWq/OCuFi+xXbe69n/FJp4Asz6508BgPePj56zMjV490KZcFPhoY8FlF7RXFnTEh3xwpKicdRAXaPl4FrRo+Pdz/2KIUvH/fK4TUVvHzCbbcb+usZWXSwA0MP3Sq+JNxe+9xGf0qvk9V39tB8AAKOqKrlArF+759AmCRdsekXTrZ8HR8xTvbDHY2COsFfKFTOoGnKXF/4HiGZjigl3fJjF6swrYnPxtvnOMD0qlcrPz8/FO491XWOe33sht5hWBWeA8Mt8+3fBVV+cb8Bvi3wxXnQF0Yv2QiuIf4BugH+DHk05NLDYznuxwq5rsePIQkPIkQGl0QY836TM5X5Dj/qsTu7Liy58fV34hH+YwRhbL5+614dfbIPQDE3nDxAhtPiuOdrBruvlQEjCMzfvCPLmEwRjVfc3X/ylxunX1Fg7rh7pcGs6hBa56fwBIoQWfe+FXg62nnunv7033ykQeknhHyBC0/OSfYgLIYQQQmheeV7vhW8w9HRYQU+HFfR0WEFPhxX0dFyVSjXfGRBCCCGEXhZcbx+f+c6AEEIIIfRSUCuHPe+aI0IIIYSQ58LeCyGEEELIfbD3QgghhBByH+y9EEIIIYTcB3svhBBCCCH3wd4LIYQQQsh9sPdCCCGEEHIf7L0QQgghhNwHey+E0HwggwsOffJKPOe3H6a4zyy2kn/wD9vj+DMfYZqbm21gNNGz8rlytCwEZHDBoY93xi7UeGjBYO+9uL7xmw58/L9eXyFxc5xZ8MTMaCKsIJp7tKqhvKy6zzIng3EDk5YH8+ZkqJeBa9NFBq8/+Mm2WPbueE7Ltyg8nS5nN+OjqKdw7L04ssTCA/uzRFotMw95ZsYTM6OJsILoBbEMt7f1G+ZkKEHMmvwVwe46hebxXJsublhaEreptstJezWH5VsUxqeL7TZ8FPUkXIcltNU8WHGyvDdid2L8PASaEU/MjCbCCno0cdre9zN6f/zmroIBMmzDewdWqi5+cbrGACBI2vPHbOWx76skOdtzk4K8+FzCOtxUfuFa86irg9vIgJU7s1bH+ItI01DjzV8uN4xQAIQ0Mmdj3uooPyGYlF01N65VtmtpIIML3tlovXaPl7UhfSnz8Pi31/oDC97d51P+aYk++/c7l0sIAACeyIvbeu7/XmijnQ6ymVNVL05LjwsQE8bB+vJLVxrNURv2bE2UCmIOfJxNDVacOPVII45ZN9OdWoAICcvueMfnbipICfHicRiTounGhUstEGe3pEkDkojsjetXR3jzGENf7c1Lt+UaWhRrN101jOOKDIAgOiXR2nisz3vt2wdiGg4feaBmAACEybsObdCf/7LMmvvuPp/yT8/JXQtMA0eWuLEoLyVETOsHGu60ifKju7879cgABEtItmkggwveKeI+qJeszIj1E1Dq7uqyy7c69YyTzRHSiOyC3FUxS6SkVdN+86fS4Wcjcf3Tdu9NN904WdqkFc1R1KfT1Wtji46Pop7EsfdidJ11TUB4Rc5DmpnyxMxoIqygRzN2dgxtjg+XVii0RFBCDKVQBydEi2rqjdzQyDBzd5WCMlm6Hlyq7hwygE/qnrc3rpW3XWR96c5CFJ/gffLUNyU6wnf51rc35XbJSxotfpm7dqaqLh/5rHmE8YrNe/WV3cTRI3cHGADSP2PTykfXT392Tme1/vbsSvfd/u6L2wBA+q3a/0ZK34MuivDLcjrIkvR039Onvy3REH6pWw9szutuL2m8fqEi9GBM/Q9HH+nHxjSNzHinFiDGcXd+oTO3JOkufftpmxH43kt8KC0ZXmi3hCF8M3bsTB259J/P5TpBROH+XbsMR448GJFPni5O5Cb7FQEAxAmpUSN1Pw5RalP9QM7yRFl1pYoBEMemROnrj/XaIHBagS92ybJ2bIkevPjvU21azpK04t3FIlU3ABC+6Wwh2c8Pkf4r0yQnT399Ts8NXLXtjV1bNN+eeaxl21ynb+auXWmj105+2aSgxX5iSs34jI3BkS3f+doa660TpU0amv1QmUHU8eli7RrxUdSj4HvtEUKzxGi6ukYCIyIEQAbGxRIdtx8rlsZFCoEMigyD7s5+CqiRJ/IhAwVAabo6lDwvqetX7qiemvvtOgrANtrS2kf6yqQE4Z+QEjR0/1bziBXAppXfqez0TUkNGXs046jrrpXLVQazxer4FMVZkrU1m/vg0q1+65SDUD2PK9s0NgCrqqmll/SVSQmWZDPfqYXIcXdo7YhaEJaSEh0gBItmaFjPOC4h/BJXhA5X3ZFrKWAMTx7Uj4QkRns7zJbjigBA+CStCB2oaRxlgFE31XfLkpYFEACEV3xyuKq+1kmLMUVgwi8+OWCg6k6bxgaMebjmXoOKBgBwMeSzsL01VZ06Chjz0KOKOmN4YoSAfXNjh1B545CJpi06xaiRAQBgGEn81tfWkhWnS+rV9NxFnTBdyOM5nvdCCKHpYVSdHYa0qBC+MiyW13m1Ta7LyI6LFCr8I4RPKnutwA9clpWTGuEvAJrhSPxJZb3T5z0HtF5nHP+RpoEgCCAlUjGl1Y4vBqtOYxJ5iZ+2TSMqjZMnJ17o2uI11rs/3B+mADhTDcKyUQez2akFiGV3GNWDEz/p12Rlv5G9Sd1adb384ROHJX1SLwknJO/ABzkAAECQPJuGJ3AYnWUoAwQsWx7Qda9ZBwAAhraa9vX5yUF3FMakZcH9db+MMABTzShLYEIsFlFazXjpGJ1OzwAAkK6FHEcbDebxIfRaHYSJhQTQSxw2R0okYkqrMdodbry43HyCR7cZzdRcRiUmTRfycNh7IYRmjR7q6KaLohI0YTz5jT6rWt+myYhPiPTyHWjoNnMiCvdt8q8+caqk30QTPplvHYyZ5dZ0Wj0n0ltEgI4BAOB5+QiNGv1zTpMIInK3p2jKjjweO8Ewg0EmPsdyIvLmdqfml7PdMQ033bzQdFsUvKp412ub9J+fb7Zb8sVdvcHWXfndmVrT5BEJsGtJ7Icq1aQuE7Vc7Rhfz9xe27apKDmsQbfM/0lV83PeMM4amDEaTRyZVAgwdllYIBAQAAC0wUlIdqRYOn5YEFJvKRgNJtLJ5owcmZcIYFI/RA/cPlpqzP19UfFqxZnqEXpuonKCJ08X8mx4zREhNHtUb0evMCY9SdTR3EcBMyKX6yPWpAUNd3QagSMSCy2qfoWJBkIYnJy4ZLbnhxhV8+O+gPR1cb5cAI40OicjUtNQNzBl7yWKKdwSN3jlcu34SbFpD8KYDQZGFhQoBACY+52aX6y7Q3gFhskEJABtVPUrTSSHQzosAUVz3VBo1vpEfz4BQHAlASF+AgD76XIcih+emgxNj7utzzJYe+oa6disvESv9rpWI2vM5wRmlG3NIyHpWZESEoDjHZe+LJAEAGCchXQydtiK9CgJB4AfuDIrRdjd1GVm3RytaGlUBGesS5DxCCAFvgE+AgAAWq/Ta1uuljR45e/MCeXNTVSew3Qhj4bnvRBCc8DS09HrlRTScL3HBgCMQt5hW5tpaujSMMC03yuLLyp+5x2z2Wbsr2lo0cXNcmPMaHXJee6G/Lc+3CIkbZondRfOVAxQU7yWJPxSc1J9RKbCAx8XAgBQvbe+L2mY5iCm1nsVycXFf/qEGaw4cfTRXO/UvLKw1YiQRKzbvmaplKRsNsNwy6UrzSbJKrslRoaqPHeeyM99/YMiCResekVTeemAysxMnq5jT+yG6lq6Lt9Qf7x/Yq9LDdQ2Wg6tE1X/5OwrJ54TGOihuyVXxEVFH3zCs+lVbbVdfZQfAACjchKSlVEuN6/ce+hVmZBWdz84/2udjmE/hunhu+cucgrXHfhoq4i0jbZeP/azcnwQc/fN0orX979S2H/46uyjEnGpsfbThTwZsWHzlvnOgBBCCM0xwj/r4NshlZ+erXf9y1nJ4IJ393qXf3a+lXr+nefOTKIij6VWDuN5L4TQAsCP2bw/L3LC/2JhjC2XTtztxRf6aBo4sqWhnJF+hcEGPN/krBS/wYd9zi7TsR5ypzoA2D5ZMb9R0aKDvRdCaAGwtF/+vn2+QyBPR0gjsrbsCvLhk8BY1X2NpT8/dvItXk4OOTLYXd9LOp2oaNHBa44IIYQQQm6iVg7j5xwRQgghhNwHey+EEEIIIffB3gshhBBCyH2w90IIIYQQch+u1YJfJ4IQQggh5CZ43gshhBBCyH2w90IIIYQQch/svRBCCCGE3Ad7L4QQQggh98HeCyGEEELIfbD3QgghhBByH+y9EEIIIYTcB3svhBBCCCH3wd4LITQfyJDCD/+2J5Hz2w8vfosb/vDxrni+6/d3UzDkzLOSuf9omRkypPDDv74av1DjoQWDa7+AEC9duS5/TVKEn4gwqTofXb9Y3qam5yOa6zwxM3LAlSUWvrI1w3Ljv358qJ/vMGhx4AYtSyLb6votAAC0sq7sMq8P/5OHm0yafKfIkA2H3vS6/s/zrSz3w5LZezpd/+d8K+vN+CjqKex7L0IQEBNiqyv55li/kReYtuuNXVtVXxyr0TPzks41npgZTcaRJRe+VrhU0a9lBPOdBS0egrjswpVPuur7LQwAgGW4rWW+I7087CbfCW74qmXchpIOJ+3VeMnwCs2Y8eliuw0fRT2Jfe/FmLpvXuwe+5kaqmvoL1zv50XAgu5jPDEzmoy2mgfuHL3eE703OWG+s6Bpk6x648PMnv98eWuYATJ80x8PpitL/nn8kR5AuGzfx+uUR76plObtzE8O8RZwCctQfdm5y40jzx2V8M9999242q8O31czAADC5Xs+LNSf/vSXbkoSubZoY0aUD5/W9z4uu1DepqEByJDC94ssv97mrd2cGc48OPJ9Z/K+7clSYdx7f1lnG7hz9NhD0cYP3vQp+/vpZoqQRq7dVJARGyjlWNRt1384U2OLzZ92wkWFkMY5zoB3QsHWwtQQbz6XMQ43XDtb2sTE2y1pUANLOcTxm1+fPPm044oMgCA2Ldlaf6TXJ/c9tlpftuaPlYzlLA9bYBo4suTN2wtWhIppXX/drVbxhtjOr3+q1gPBesw4IkMK39/GrayVpGfG+wup0c77Vy6Vt+sYJ5uzP5DODT0biRuwau8bmaZrR883aMVzFPXpdPXY2KLjo6gncbjmOBFvaUSgufehypMu33liZgSMrr2mAQjvaGK+k6AZMHS0DxUnRHjdHtYQwYlx1PBoSGKM6HGtkbM0KtzcWTlMGS0dVRfutw/qwTdt33ubc9ta2F+6T8Soamv6c1OT/aoqlAwQ4vjUGH3tDz02Qpa5e3easvTbf7RqBVFFB3bvMRw+XKliAID0zyxOr756/B+ntFarxdp79k7o+3G13/xQrWcAgBQ9HZkIyN6zZ9Xo5aP/alDQYj8JrWYYUjX9hIsKY3SYgYtUzrZkbelXx1sNwPcJ9KE0ZESR3RLGSTlar0yafE7UFvsVAQAkSWkxqseHB6lRI2utIWhagUs6/HJ2b4sZKPnipxYNN3DV9te3ixWdAEDI1jg7ZhyRAatXS346/tlpHTcoY9eB3ds0X514qGHbXLvM4UDyGRuDI0vdvT/beuPo+QYNDTBHUceni/3pDR9FPYnzM7mEJGFzUVz/tTK551xr98TMCHk8Rt3RoQqOihAAGZQQT8jLHw6HJ0QLgAyOjiA62/sooFRdrYN6CoBSd7QP8729BC48PzCaxppOv+UpSwgAQpqUEqmsrRmkCf/klUuHKm+1aihgDF33a1ShSbHeT4fjqmsuX29VGswWq/OXX0RA0oqQwXtl9UMmmrboFCMGBmaWcFFxnAFGO6IWhKetiAkQgkU9OKxjaIclU5bjN44rAgDhm7wyrP9R/QjjpNbTDUz6Jy5f0l95s0VtA8Y09OhOnZIGAHAx5LOwTx5WdmopYMyDD+7UGCOSooQE6+bYDiQAhpEk7ngjj7x9/GztKD13USdMF/J4Ts57kT7JxfuKfB4eO1mv8ZQ6e2JmhBYFRtnRrl8ds5SvDI/jtV9ubdUp18ZHC4cDIoXdd3usIAhKyclNi/IXAk1zJAGkota1YfUtj+QbN6YE3ywzLFse3Pf4gooBUuot5YQWHPw4d+xOJM+m5o2/v4UaUaqf+9dPSqQSm1ZtmHjHGSZcRFhmgFFWHv1Bl7V23YGPt6qb710tq+p2WNI7VTl+wzKUHgJSVgR03GnUATipNUzV/7IEJiQSsU2rMYxvVKfVM8EAUx8zjmijwfT04GC0Gh0RLhYC0I6bYzuQAICXUFBIcKkWo+nZpcK5iEpMnC7k6dh6L67/yl378sh7P558OGx1e6KZ8cTMCC0a9IC8k94anaSO4Ldd67GO6lo1mQlJ/d6y/rouMyeq6M3iJVU/HjvTZ6QJ3+zfvx/r6rhm+ePm4q3Lw2t1KQHdlU1aBoA26PTWroqvTzw2Tr4vAQCM3dMgM37DpIVGg5G71FsEMP40xonKn2nCRcLZDJiGGm6cbbgpDknf/tr+Lbr/Pt1ot+Sft5yWw27y7Yc6p1mZKmr+RW56ejtLracbmDEYjFw/qRBg7DN+AsHY2Uunxww7UuIlJkDLAADh5SNljHoj++YcDiQAAGD6yw+fNxS8u21n+vDxKhU9N1E5oZOnC3k2h2uO/KCsvftz6dvHLtSrCT6fz+fxOAv93LsnZkZoUaF62rtFcZnLRO2NPRQwqpZWfVT2quDB9nYDcEQSoVnZO2ykgRCGLE8OmsaH1qzdtfV0/NqCZG95TbMBAIAZbqwZWrp2Q3KAgAAguNIloX5C9r93xmwwMn7BgYLJ/Rc93FQ3HJqVn+THI4AU+C7xFc8i4eLAWiPCOyhcJiQBaIOqT2EkuRzSYQk4K8fkyXccih+5YjnT+LDzt9fKjrWebmBG0dKoCl2zNlpKAnC8E9akjFVyGscMAAAnfOWaaCkHgB+Yvi5V1NXQaSbZNud4IAkAACidVq9p+uVsnXTj7tylvLmJynOYLuTR7M978RPyNsX5cmHnn1J2ji1h9I+O/OOinHJ7NJd5YmaEFhlrd3uP9/LQuqtPbADAKFrl1rwcY12HhgGm7c6VxG07/vC+yWQ19D6qa9TGuz4u1fe43vLH9eKqH8a/hoBRVpw6Q2xc/+ZH26Q8sOqGGsrO9atYTwcYm+/cXrZ9x5//Jwzc/vH7yvHF9NDtU+e4Rfnv/HWnmLSONl89cnEWCRcFC1uNCEnU+leyw7xIymo1DDVduNRokmTYLTEylJNyTJr8I112Q3WE5Rfqa4/0TXxPl2OtpxkY6MHbp3+RbN/60d/4Nr2i5XFHL+UPMK1jBgAMra3m9Df+tFcmpNWdlad/rtEy7Mew44FUohgfxNxVdv727363p6jv37/OPirEpyXYTxfyZERu/ob5zoAQQgjNMSJg7fvvhVb8/WSt2eV1yJDCD970ufb30y1ufe0+k6jIYxm06im/YwIhhNyDH1d8oCBqwv9iYYxNpT/e6sEX+mgaOH5hYaSqV2mwAU+2PGeF/8CDHmfn0FgPuZ/kAFO/x38+oqJFB3svhNACYGm79E3bfIdAno6QRuVs3xPiIyCBsap76s6VVDv9SgbWQ44MSXzBEcdNJypadPCaI0IIIYSQmxi06pfu4zwIIYQQQvMIey+EEEIIIffB3gshhBBCyH2w90IIIYQQch8uj8+f7wwIIYQQQi8LPO+FEEIIIeQ+2HshhBBCCLkP9l4IIYQQQu6DvRdCCCGEkPtg74UQQggh5D7YeyGEEEIIuQ/2XgghhBBC7oO9F0IIIYSQ+2DvhRCaD2RwwaFPXonn/PbDS8iVfecHr3nl4F/+8ue//XFLvMBdwRYIMjj/4B+2x/E95mghgwsOfbwzdqHGQwsG134BP2B5dk5GYniAlEdYNb0Ndy7daB6h5iOa6zwxM3LA9Y0v2FG02nLzX8dr9PMdBiFW3MCkRFJeP2B12xaly/Ly/dqPflbeR3EJah4CzJhrUcng9b/fJ735xUW5xfFGWtVQXsYdYLnlZfV0uv77opz1ZnwU9RQOvRcpltDdN0780jVq5ckSt+zdsnW0/2i1hpmPcK7yxMxoEo4sseCVghDlgJZ52V7ZI08iiFmTv6L3iRtbH9Lb15saqh6wAAM2BgRx7g4wY67NFTcsLYnb9HOXk/bKMtzeBoBXaMaNTxfbbfgo6kkcei9Td+Wt7rEfLSPytiEm31tCwMLuYzwxM5qEtpoHK06W90bsToyf7yxo2sRpe9/P6P3xm7sKBsiwDe8dWKm6+MXpGgOAIGnPH7OVx76vkuRsz00K8uJzCetwU/mFa82jrg1NSCOyC3JXxSyRklZN+82fSmrVksicjXmro/yEYFJ21dy4VtmupYEMLnhno/XaPV7WhvSlzMPj317rDyx4ZzOnql6clh4XICaMg/Xll640jlIAhCQie+P61RHePMbQV3vz0m25hgaWEXrpyVlEsRv2bE2UCmIOfJxNDVacOPVIDVJnYYq4D+olKzNi/QSUuru67PKtTv3Uj0hsqcQxeVs3pfoIOVs+/NDce/NsbWCxXYC5e5QjJDHrHGrkHZ+7qSAlxIvHYUyKphsXLp5hHRQAACAASURBVLVAnN2SJg2wJHeYqxrGcUUGQBCdkmhtPNbnvfbtAzENh488GNsjYfKuQxv0578ss+a+u8+n/NNzLGd52ALTwJElbizKSwkR0/qBhjttovzo7u9OPTI4Kbojp7Vj35z98Vk6/Gwkrn/a7r3pphsnS5u0ojmK+nS6em1s0fFR1JM49F7PcESBcTlZocqae8Osh+hC5ImZEQAAo+usawLCK3K+g6CZMHZ2DG2OD5dWKLREUEIMpVAHJ0SLauqN3NDIMHN3lYIyWboeXKruHDKAT+qetzeulbddZH3pbofwz9y1K2302skvmxS02E9MqcEvc9fOVNXlI581jzBesXmvvrKbOHrk7gADQPpnbFr56Prpz87prFYaAIBckp7ue/r0tyUawi9164HNed3tJY0W3/QdO1NHLv3nc7lOEFG4f9cuw5EjD0YYYBth8m7Kr1+oCD0YU//D0Ud6AADCL8t5mJVpkpOnvz6n5wau2vbGri2ab8881jrvlAj2VO03z5Ry3t0nLvv8YjsFAA2TA8wlxjRiX6Nf6MwtSbpL337aZgS+9xIfSkuGF9otYQjfDLbkdnPFidxkvyIAgDghNWqk7schSm2qH8hZniirrlQxAOLYlCh9/bFeGwROK/DFLlnWji3Rgxf/fapNy1mSVry7WKTqdj697PVwUjuWzXX62h+fjM/YGBzZ8p2vrbHeOlHapKEB5ijq+HSxP73ho6gnYTuTy4na+tH/+N9/+/hQceTo/RuPh1hb7AXGEzMjtEgwmq6ukcCICAGQgXGxRMftx4qlcZFCIIMiw6C7s58CauSJfMhAAVCarg4lz0vKd2Vcwj8hJWjofnnjkImmLTrFqBHGltxqHrEC2LTyO5WdvimpIWOPYxx13bVyucpgtow3TlTP48o2jQ3Aqmpq6SV9ZVKC8EtcETpcdUeupYAxPHlQPxKSGO1NgJMRXIjHHoburanq1FHAmIceVdQZwxMjproONGUqN3GsEa0dUQvCUlKiA4Rg0QwN6xnHJS4md1wRAAifpBWhAzWNowww6qb6blnSsgACgPCKTw5X1dc6aTGmCEz4xScHDFTdadPYgDEP19xrUNEA055e9tqxbM7h+GQAABhGEr/1tbVkxemSejU9d1EnTBfyeGznvajOnz/9vz+TPGlAVObmV972vfDNle6F/l5HT8yM0GLBqDo7DGlRIXxlWCyv82qbXJeRHRcpVPhHCJ9U9lqBH7gsKyc1wl8ANMOR+JPKepfaClIiEVNajZGZsEQqprRa4/jvVp3GJPISj7U71IjK7p0GtF43fleapoEgCCAlXhJOSN6BD3IAAIAgeTYNb7wtchxh6nhThKGNBvP47Oi1OggTCwkwORuclE6Ryj1YasSoHpz4Sb8mK/uN7E3q1qrr5Q+fOCzpcy05y1AGCFi2PKDrXrMOAAAMbTXt6/OTg+4ojEnLgvvrfhlhAKY6TFgCE2KxiNJqxivC6HRjF3qnOb2staOXOGzO8fgEAABeXG4+waPbjObxT3zNSVRi0nQhD+f8miNt1Q21VtSmpaeH+ZLdz3sFsjB4YmaEFgF6qKObLopK0ITx5Df6rGp9myYjPiHSy3egodvMiSjct8m/+sSpkn4TTfhkvnUwxrVRGaPRyJF5iQDGn29onVbPifQWEaBjAAB4Xj5Co0Y/jT912qA32LorvztTa5p8g2snmSY+zU4ZhhRLx28gpN5SMBqcNl5TpZoywBziROSx1sg03HTzQtNtUfCq4l2vbdJ/fr7ZbskXd53Op11U+6FKNanLRC1XO8bXM7fXtm0qSg5r0C3zf1LVPMUFWqeBGaPRxJFJhQBjl2QFAgEBMJ3pBQDW2pFONmd3fAIAAD1w+2ipMff3RcWrFWeqR+i5icoJnjxdyLPZX3Pk+UfEBnsJSAAgeD5Rmakhxr6+0YXdxHhiZoQWF6q3o1cYk54k6mjuo4AZkcv1EWvSgoY7Oo3AEYmFFlW/wkQDIQxOTlzi6rU0WtHSqAjOWJcg4xFACnwDfPiq5sd9Aenr4ny5ABxpdE5GpKahbmAaf+2MorluKDRrfaI/nwAguJKAED+XTzAxZoOBkQUFCsd+myoMJ2xFepSEA8APXJmVIuxu6jJPNbCLqSYHmEOsNSK8AsNkAhKANqr6lSaSwyEdloCz5JOjOg7FD09NhqbH3b99CtLaU9dIx2blJXq117UaWWM+JzCjbGseCUnPipSQABzvuPRlgSTAtIvOUjvWzTkenwIAAFqv02tbrpY0eOXvzAnlzU1UnsN0IY9mf96LEAalbdiyK0DMAZoyq/tarh2/2bnAL955YmaEFhlLT0evV1JIw/UeGwAwCnmHbW2mqaFLwwDTfq8svqj4nXfMZpuxv6ahRRfn4qD08N1zFzmF6w58tFVE2kZbrx8rra8uOc/dkP/Wh1uEpE3zpO7CmYoBajrfQcCoKs+dJ/JzX/+gSMIFq17RVF46oDK7dj7J1HqvIrm4+E+fMIMVJ47eVzoPY5TLzSv3HnpVJqTV3Q/O/1qnm3ILrqayDzBXp8EsbDUiJBHrtq9ZKiUpm80w3HLpSrNJsspuiZGhnCSfFPXYE7uhupauyzfUH++f2DZTA7WNlkPrRNU/OfvKiecEBnrobskVcVHRB5/wbHpVW21XH+U3nekdw1I79mPY8fj8WTk+iLn7ZmnF6/tfKew/fHX2UYm41Fj76UKejNiwect8Z0AIoUWEDC54d693+WfnW/ErnucT4Z918O2Qyk/P1rv+WnyeajeTqMhjqZXDzt/vhRBCbsOP2bw/L3LC/2JhjC2XTty1/44tj8lD2F9YXWg7uDhxZEtDOSP9CoMNeL7JWSl+gw/7nF2mY63IqQ6W2s17VLToYO+FEFoALO2Xv2+f7xATzHmehbaDixMhjcjasivIh08CY1X3NZb+/NjJt3g5qQgZ7K7vJZ1OVLTo4DVHhBBCCCE3USuH8b9kIYQQQgi5D/ZeCCGEEELug70XQgghhJD7YO+FEEIIIeQ+XKsFv04EIYQQQshN8LwXQgghhJD7YO+FEEIIIeQ+2HshhBBCCLkP9l4IIYQQQu6DvRdCCCGEkPtg74UQQggh5D7YeyGEEEIIuQ/2XgghhBBC7oO9F0JoPpAhhR/+bU8i57cfEACQIRv+8PGueP4Ud3iJpuvZbHjK0UKGFH7411fjF2o8tGBM0XuJYrd++P/9P7sSPOko8sTM6CmuLHHLwb/+v2+tksx3EoSc4QYtSwlx3hjNHq2sK7tc1TuTfzfywrNNk2t5yJANf/ibs2ZzFrOxSD2dLmc346Oop3DWexHS5KItS61qxq1pZscTM6MxHFly0cHfrRVptVg9tIAJ4rILV4bwiBe4CctwW0ufYQYruiHbtLiWhxu+ahm34VGHk/ZqxrOxSI1PF9tt+CjqSbisS0lZ2s4CQeXl5lW7/NwcaMY8MTMaR1vNA3eOXu+J3pucMN9Z0LRJVr3xYWbPf768NcwAGb7pjwfTlSX/PP5IDyBctu/jdcoj31RK83bmJ4d4C7iEZai+7NzlxhHXhiakkWs3FWTEBko5FnXb9R/OPFZLo3M3F6TH+IsYk6Lz4bXLd+UaGsiQwveLLL/e5q3dnBnOPDjy5eW+oML3t3Lu1YpXZyYsEROG/tqy0l/qRygAQhK5tmhjRpQPn9b3Pi67UN6moYFlhB56chZx/ObXtydLhXHv/WWdbeDO0WMPRsHLWZht3MpaSXpmvL+QGu28f+VSebuO5RmRNfYHb/qU/f10M8WRJW/eXrAiVEzr+ututYo3xHZ+/VO1EQAozpL0V3My4gLEpGmw/nrppTpTjEO2aT4BE9K4fIcaeScUbC1MDfHmcxnjcMO1s6VNTLzdkgY1sMynw1w9pB1XZAAEsWnJ1vojvT65770bV/vV4ftjr52Fy/d8WKg//ella/7YbLS6FpgG9knTOyk6e0VYa8e+Ofvj89zQs5G4Aav2vpFpunb0fINWPEdRn05Xj40tOj6KehK23ouzJHtHpuXGj9XqtNVuDzRDnpgZ/YbRtdc0AOEdvWBetKNpMHS0DxUnRHjdHtYQwYlx1PBoSGKM6HGtkbM0KtzcWTlMGS0dVRfutw/qwTdt33ubc9taSlhfutshArL37Fk1evnovxoUtNhPQqvBP3vP7hWKn//z98YRxjt2w97X9hHff3ernwEg/TOL06uvHv/HKa3VSgMAkIFrMmUnjn9xTk3I0nYeLC7obDvTYJGt2b07TVn67T9atYKoogO79xgOH65UMcA2wuTdbL1y9k7o+3G13/xQrWcAgPDPcRomYPVqyU/HPzut4wZl7Dqwe5vmqxMPNWztkLONkktydm+LGSj54qcWDTdw1fbXt4sVnU9vEyUkeR879sVZLeG7Yud7W/I7287U22WbNsaosq/RRSpnW7K29KvjrQbg+wT6UBoyoshuCUPIMtnm026uOFFb7FcEAJAkpcWoHh8epEaNNf25qcl+VRVKBghxfGqMvvaHHhsETStwSYcf+6QRzovOUhH22rFsrl1mf3wyPmNjcGSpu/dnW28cPd+goQHmKOr4dLF2jfgo6lEcrznywvK2r1BcudjA9iptgfLEzAgtGoy6o0MVHBUhADIoIZ6Qlz8cDk+IFgAZHB1BdLb3UUCpuloH9RQApe5oH+Z7ewlceX4gApJWhAzeK6sfMtG0RacYMUBA0orggXvljSorMDZNW/ndDlla2tKxxzGuuuby9ValwWwZ72GoJ9V3WtU2BqyqhqYejszfiyD8k1cuHaq81aqhgDF03a9RhSbFej9N4zjC8+I5DUM/eVjZqaWAMQ8+uFNjjEiKEjrZZfaNEv6Jy5f0V95sUduAMQ09ulOn/O1W6snDCrmWArCNNjb3cGR+0jl4unWsEaMdUQvC01bEBAjBoh4c1jG0w5Ip5/M3jisCAOGbvDKs/1H9CAOMprGm0295yhICgJAmpUQqa2uctBhTBCadTJqLIZ+FZa0dy+Ycjk8GAIBhJIk73sgjbx8/WztKz13UCdOFPJ79eS9hzIYdMZ0Xfmg3AnhK8+yJmRFaTBhlR7t+dcxSvjI8jtd+ubVVp1wbHy0cDogUdt/tsYIgKCUnNy3KXwg0zZEEkIpal4YlJVKJTas2MBOXiG1azbM3AFm1aqPIWzzW7lAjSrt3e9J6nfHpEppmgCAIICXeUk5owcGPc5+OyLOpeYKn93cc4TnxnIehjQbT06EYrUZHhIuFAEa2Ydg3SkgkEwdndFo9EzzFfs0aS40YZeXRH3RZa9cd+Hiruvne1bKqboclvdIp5vM3LEPpISBlRUDHnUYdAACjb3kk37gxJfhmmWHZ8uC+xxdUzNQP6CyBnU0a6VrIcay1ox0353h8AgAAL6GgkOBSLUbTs0uFcxGVmDhdyNPZ9V6ipMyVAQGWNz5OAwAgeSIhufvPEc0/f3m2acF+0sQTMyO0uNAD8k56a3SSOoLfdq3HOqpr1WQmJPV7y/rrusycqKI3i5dU/XjsTJ+RJnyzf/9+rGujMkaDkbvUWwQw/nxD67R6bpSPmICx9xPzvH1EBo1+7DmOcehgHJcAbdDprV0VX594bNcIEez3tx9x/K7PC0NKvMZvILx8pIxRz9p4Od0oYzAYuX5SIYAeAAAEggmnCp2sMiHbdHGi8llrZBpquHG24aY4JH37a/u36P77dKPdkn/ecjqfdnnshzqnWZkqav5Fbnp6u1n+uLl46/LwWl1KQHdl03PeMM4a2NmkOS06O5basW/O4fgEAACmv/zweUPBu9t2pg8fr1LRcxOVEzp5upBns7vmaKw7+6//+vSrz7/6+vOvvv7i5AOFqe3SN99ealvITYwnZkZokaF62rtFcZnLRO2NPRQwqpZWfVT2quDB9nYDcEQSoVnZO2ykgRCGLE8OcvVrBenhprrh0Kz8JD8eAaTAd4kvX9n4sCcwc32CLxeAI43JzYpW19X0uXCBcBwz3FgztHTthuQAAQFAcKVLQv2cXQ10XNlsMDJ+wYECAAKAmSoMJ3zlmmgpB4AfmL4uVdTV0Gme1qUiRtHSqApdszZaSgJwvBPWpDxn2iZnmy7WGhHeQeEyIQlAG1R9CiPJ5ZAOS8DZfE7O4zgUP3LFcqbxYaf1WQZrd209Hb+2INlbXtP8vM82sgZ2NmnTLDpL7Ui2zTkenwIAAEqn1WuafjlbJ924O3cpb26i8hymC3k0+2uONpP+WQdPiCwUYzPq9CbKzammxxMzI7TIWLvbe7yXh9ZdfWIDAEbRKrfm5RjrOjQMMG13riRu2/GH900mq6H3UV2j1unXE9mhh26fOsctyn/nrzvFpHW0+eqRc7VVZ05xN29858/bhYRV/aTm7Inb/dR0viWaUVacOkNsXP/mR9ukPLDqhhrKzvWrXDybYGy+c3vZ9h1//p8wcPvH7ysUzsMYWlvN6W/8aa9MSKs7K0//XDPdD/7Tg7dP/yLZvvWjv/FtekXL445eyn9a2aa1PQtbjQhJ1PpXssO8SMpqNQw1XbjUaJJk2C0xMpST+ZyU50iX3VAdYfmF+tojk9pmqu9xveWP68VVPzj7yonnBHY6adMrOkvt2I9hx+OzRDE+iLmr7Pzt3/1uT1Hfv3+dfVSIT0uwny7kyYjc/A3znQEhhBYRMqTwgzd9rv39dMucvQQkAta+/15oxd9P1prnasjFbyaT9gJq5wqs70vFoFWzf78XQgi5FT+u+EBB1IT/SMEYm0p/vGX/HVselMfumta0B+T4hYWRql6lwQY82fKcFf4DD3rwnRTPMZ1JY63IT3IA93xoC+v7UsPeCyG0AFjaLn3TNt8hJpjzPNMekJBG5WzfE+IjIIGxqnvqzpVU47cLPM90Jo21ImRI4guOOA7r+1LDa44IIYQQQm5i0Kpdf4cqQgghhBCaLey9EEIIIYTcB3svhBBCCCH3wd4LIYQQQsh9uDw+f74zIIQQQgi9LPC8F0IIIYSQ+2DvhRBCCCHkPth7IYQQQgi5D/ZeCCGEEELug70XQgghhJD7YO+FEEIIIeQ+2HshhBBCCLkP9l4IIYQQQu6DvRdCaD6QwQWHPnklnvPbDwvfQo7qSjZ+8JpXDv7lL392V6ZZI4PzD/5hexzfY44WMrjg0Mc7YxdqPLRgcB2WcOK2/en1FOHT3+iRiiPfXuun3ZtqujwxM7LH9Y0v2FG02nLzX8dr9PMdBqE5wQ1MSiTl9QNW1l/dTLosL9+v/ehn5e7ZnGs7Swav//0+6c0vLsotjjfSqobyMu4Ayy0vq6fT9d8X5aw346Oop3DsvfgSMSm/9NmpBjMAAMPQ1MJvYjwxM5qII0sseKUgRDmgZQTznQWhqTDMNO4siFmTv6L3yXj/Yferm5Hevt7UULW7OhnXdpYblpbEbfq5y0koy3B7GwBeoRk3Pl1st+GjqCdx6L0IsURs0WpMNhs1H3lmxBMzo0loq3mw4mR5b8TuxPj5zoKmTZy29/2M3h+/uatggAzb8N6BlaqLX5yuMQAIkvb8MVt57PsqSc723KQgLz6XsA43lV+41jzq2tCENCK7IHdVzBIpadW03/yppFYticzZmLc6yk8IJmVXzY1rle1aGsjggnc2Wq/d42VtSF/KPDz+7bX+wIJ3NnOq6sVp6XEBYsI4WF9+6UrjKAVASCKyN65fHeHNYwx9tTcv3ZZraGAZoZf1JRzFDcrYvTYt0lfIaLqryy7f6tQzAITUMZUgdsOerYlSQcyBj7OpwYqSR7JNE349ceqRGljWGtuXzZwHTV6rVsfIBFZV263LVdaUDXmJQVKOsb+27HxZm2bKBpBtB8UxeVs3pfoIOVs+/ND8r8//zbJSzDqHGnnH524qSAnx4nEYk6LpxoVLLRBnt6RJAyybE03e9xOnahjHFRkAQXRKorXxWJ/32rcPxDQcPvJAzQAACJN3HdqgP/9lmTX33X0+5Z+eYznLwxaYBo4scWNRXkqImNYPNNxpE+VHd3936pHBSdEdkcEF7xRxH9RLVmbE+gko9bMSs2/O/vgsHX42Etc/bffedNONk6VNWtEcRX06Xb02tuj4KOpJHHsvvpAvTNr+QQKXC6bRnsaKq7dbRxZ4S+OJmdEkjK6zrgkIr8j5DoJmwtjZMbQ5PlxaodASQQkxlEIdnBAtqqk3ckMjw8zdVQrKZOl6cKm6c8gAPql73t64Vt52kfWlux3CP3PXrrTRaye/bFLQYj8xpQa/zF07U1WXj3zWPMJ4xea9+spu4uiRuwMMAOmfsWnlo+unPzuns1ppAABySXq67+nT35ZoCL/UrQc253W3lzRafNN37EwdufSfz+U6QUTh/l27DEeOPBhhgG0EFqLYaP7xk1+f0XP8U4vf3Fmk/vZsjV7Gmkp+/UJF6MGY+h+OPtIDABB2v/plOd2XgNVpwuMnvz5rEicXv7nrzaWt1858c0VB+2fse2tDVkv75R7np/YJ9h1sv3mmlPPuPnHZ5xfb2VZjTCP2NfqFztySpLv07adtRuB7L/GhtGR4od0ShvDNYNuc3b5zIjfZrwgAIE5IjRqp+3GIUpvqB3KWJ8qqK1UMgDg2JUpff6zXBoHODw6WwBe7ZFk7tkQPXvz3qTYtZ0la8e5ikarb+Zywd7Ck/8o0ycnTX5/TcwNXbXtj1xbNt2cea9k21+lrf3wyPmNjcGTLd762xnrrRGmThgaYo6jj08VefHwU9SQOZ3Lp/hs/fPX5l5//198//fJ0lSFu677ckIX+vkFPzIzQ4sFourpGAiMiBEAGxsUSHbcfK5bGRQqBDIoMg+7OfgqokSfyIQMFQGm6OpQ8LynflXEJ/4SUoKH75Y1DJpq26BSjRhhbcqt5xApg08rvVHb6pqSGjD2OcdR118rlKoPZMt44UT2PK9s0NgCrqqmll/SVSQnCL3FF6HDVHbmWAsbw5EH9SEhitDcBTkZwRPXUVnfpaQCrsv5+nSEiKVJATJXqeXvHvhbdU1vdpaeA0rbJB2hj+4NahZkBq1LerhL5+vCmGnaqHZyKY41o7YhaEJaSEh0gBItmaFjPOC5xcXOOKwIA4ZO0InSgpnGUAUbdVN8tS1oWQAAQXvHJ4ar6WictxhSBCb/45ICBqjttGhsw5uGaew0qegZzQvfWVHXqKGDMQ48q6ozhiREC9s05HJ8MAADDSOK3vraWrDhdUq+m5y7qhOlCHs/x/V5AmfQGAADKMNx4/f6yj1dH+pX3Dy/santiZoQWDUbV2WFIiwrhK8NieZ1X2+S6jOy4SKHCP0L4pLLXCvzAZVk5qRH+AqAZjsSfVNa70AsAkBKJmNJqjMyEJVIxpdUax3+36jQmkZd4rF+hRlR21+JovW78rjRNA0EQQEq8JJyQvAMf5AAAAEHybBre+NtjHEdg2VejwTT+o0FngEixkDNVqin2boq1aIPeNB6cYcwm09NYNMMAQUw1e6R0ih2cAkuNGNWDEz/p12Rlv5G9Sd1adb384ROHJX2ubY5lKAMELFse0HWvWQcAAIa2mvb1+clBdxTGpGXB/XW/jDAAU+0oS2BCLBZRWs34lDI6nZ6ZwZzQRoN5fAi9VgdhYiEB9BKHzTkenwAAwIvLzSd4dJvRPH71ZU6iEpOmC3k4lt5rIoJDMjbr/HwmZ6Y8MTNCno0e6uimi6ISNGE8+Y0+q1rfpsmIT4j08h1o6DZzIgr3bfKvPnGqpN9EEz6Zbx2McW1Uxmg0cmReIoDx5xtap9VzIr1FBOgYAACel4/QqNFP47M1tEFvsHVXfnem1jT5Bpe6QQAgxJLxQITES8IYDCbKeSq7p+WJv85+X1g53cEpcSLyWGtkGm66eaHptih4VfGu1zbpPz/fbLfki7tO59Nu3+2HKtWkLhO1XO0YX8/cXtu2qSg5rEG3zP9JVbN26iaYNTBjNJo4MqkQYOwzfgKBgJjBnJBi6XhVCKm3FIwGE+lkc3bHJwAA0AO3j5Yac39fVLxacaZ6hJ6bqJzgydOFPJv9KzNCEpoQE+jF5wCQ4qDUwozAvka5emGfQPLEzAgtLlRvR68wJj1J1NHcRwEzIpfrI9akBQ13dBqBIxILLap+hYkGQhicnLjE1TaHVrQ0KoIz1iXIeASQAt8AH76q+XFfQPq6OF8uAEcanZMRqWmoG5hGv8IomuuGQrPWJ/rzCQCCKwkI8ZvWp8I4YSvSoyUcAJ7/8jXLRU+au8yMs1SM2WBgZEGBT7//ZvKvTteanZntIGuNCK/AMJmABKCNqn6lieRwSIcl4Gxzk3fWcSh+eGoyND3u/u1lsrWnrpGOzcpL9GqvazWyxnxOYEbZ1jwSkp4VKSEBON5x6csCyRnMCSdsRXqUhAPAD1yZlSLsbuoys27O8fgUAADQep1e23K1pMErf2dOKG9uovIcpgt5NMfzXqLwNeu37PAScsCiHWx7ePbsw4V/ddkTMyO0qFh6Onq9kkIarvfYAIBRyDtsazNNDV0aBpj2e2XxRcXvvGM224z9NQ0tujgXB6WH7567yClcd+CjrSLSNtp6/VhpfXXJee6G/Lc+3CIkbZondRfOVAxQ0/kOAkZVee48kZ/7+gdFEi5Y9Yqm8tIBldnVRwyq5+5906p977/iI2C03dUlv9bqGIBR9lRgar1XkVxc/KdPmMGKE0fvK+1+ne2+zN0OWthqREgi1m1fs1RKUjabYbjl0pVmk2SV3RIjQznZ3KR9P/bEbqiupevyDfXHJ30PIzVQ22g5tE5U/ZOzr5x4TmCgh+6WXBEXFX3wCc+mV7XVdvVRftOfE6Ncbl6599CrMiGt7n5w/tc6HcN+DDsenz8rxwcxd98srXh9/yuF/Yevzj4qEZcaaz9dyJMRGzZvme8MCCGE0Bwj/LMOvh1S+enZete/0owMLnh3r3f5Z+db3fpR+ZlERR5LrRx+zvu9EELIHfgxm/fnRU74fDJjbLl04i77rr3pKwAAALRJREFUd2y9hHkmWsjZ5hlHtjSUM9KvMNiA55ucleI3+LDP2WU61mk81QEw5WcZ5iUqWnTwvBdCCKHFgRue8+qWlUE+fBIYq7qv8daVW02j0zmDRQYXjH2b6ws/7zXrqMhjqZXD2HshhBBCCLmJWjmM/yULIYQQQsh9sPdCCCGEEHIf7L0QQgghhNwHey+EEEIIIffhWi34dSIIIYQQQm6C570QQgghhNwHey+EEEIIIff5/wHwD15PabolVgAAAABJRU5ErkJggg==;" vertex="1" parent="1">
          <mxGeometry x="18" y="750" width="809" height="167" as="geometry" />
        </mxCell>
        <mxCell id="pUUdd5UQNy8CdgNerI3H-12" value="" style="shape=image;verticalLabelPosition=bottom;labelBackgroundColor=default;verticalAlign=top;aspect=fixed;imageAspect=0;image=data:image/png,iVBORw0KGgoAAAANSUhEUgAAAykAAAClCAIAAADXkiUDAAAACXBIWXMAAA7EAAAOxAGVKw4bAAAgAElEQVR4nO3deVQU59oo+qeq54GhmUFB5kFAVBRQUFAUcSLRaEyyTTQxO192XNln3/3dddZd67tnfWete8/985wv+3w7807iTozziCiOKIoiAirz0M0k89BNz910d9X9Q0HoroZGsZvW5/cXllVvPfW+z1v9UFVdEFnZ6wAhhBBCCL16OrWSdHUMCCGEEEJvEKy9EEIIIYSch61TK10dA0IIIYTQm4LtGxDk6hgQQgghhN4II4P97nfPUS6XuzoE5E4wYdCsYMKg2cKcQbPlfrUXQgghhJD7wtoLIYQQQsh5sPZCCCGEEHIerL0QQgghhJyH7eoAXsqGbTsn//PahdO7933GuOaJQ987JSKEEEIIoengdS+EEEIIIed5bWsvtUp5t+TKmd9/Pnvk0L2bV6dblQxc8+GBzVFcq8WE1/IP/rxzifAVBoleUlJSYlJS4su2MpEAZODaj7/YFs16/sMrginnInOTMOhNMuucsTO70RvCwYRx73uOtibuLXIEQkNqPr3pCwDobCxndXeBxcK8DaVovHOT3T/mtCDRnFi4cGFWZhYAjI4qu7u7X7wh5ycAppwrzFnCoDfGi+QMzu43mOMJ89pe9zIsz6OWb6AFYlogppZvsGRst7/u2HC7rF9vs5h+heGhl+Tt5b0pL48kSZIkN+XleXt5v0RjdhLgFcKUc7Y5TRj0RnjRnHH++QTNC7NKmNftutfTZ+3P/f6LNmEVALBP/k8AMO/6K5WwilV2lnkbMnDtvnc8b393QWph+8TlbFidEMCndMMtjwfxs3DeGlWO/uOnn2a3DeGT8cH7EY2/Hq1W0QAA/Pht+9dqL/x0y7T6aQK0MWwjilidnxkb6MFjE2NDTXcu3WwZpYDlHZuzMTMxWEhpBhrLZYI14V2/nqnRASEMTVu3ZmmYJ4fS9tWXXbnbpqaYIsGUc7oXSRgAIAPXfpjLqmoULFke5Ssg9IONd67caBq1MCYGBK79MJdV3eyxdHm4N9eskJVdqzYnZa+ODRCThv66mxduydS0w0mCXO3Fc+bZ+cTPgXx4NWcY5AqzSpjXrfZ6qe8zkgEZ2zYu6r34y6k2DemTuGnnUpa8bu5iQy5GKxrqB9IXx0oeVsppAEHk4kXaxpO9ZvCfZhvDaOfDKw87B3XglfTWH3Iy2mTFXd4rt24MHyz+5YxMzfJbkvf2RoG8CwAI72VbtyYprvz+fZuGG7pu97ZtuiNHq0enq6Yw5eY/0n/Z8r5zZw9dVIEkKf/93Myu9qJmI2NiAJB+S5d0njr103mjMH7Tnq17FshKzh66PkL7pu7ck50mbb/e4znrJEHua8Z86KZe7RkGzVevW+01gWy8R6XmmXf9deKfM2/iGxnt3V99ul1tAbDIG6qaMyKn+VRGruTt5f3OOzt5PB4AGI3GU6dOjypHZ9qIVrU0PMlcHu9bdXcYxDHxCxWNNwcpIKbbxqLofnY5TNXZMZIdKeYSPtFxvv3V52QqM4B5uLaicUVEIAAQktik4KHqS21qC4C++2GDYn9MhMfDhyr7p0ZMOad5oYR5iup5/ECmMgOAorm1d12qRESAkbZNDAAAoHtqH3XpLABqmayfWqirrh8ZowFGZO2KjIWeHEI36yRBrvISOTNhhnwAML7SMwxyplklzOtWez2956jRqK9fPGcAwpK6EQBYVVfJ8sIZtyX4QoFFrdI/S2Raq9FOd0UEudKocvTylSvbtm4FgMtXrjh6TtTJatuz1iYElN/RxyUE9tddUdAwbe3F9U9YmZEYJuEDTZFCX1LeAIRAJLRoVOPPc9BajZYOBABSLBazgjPfP5D+9D9IjlnF4U0bDqac07xgwgAAWHS68cGmKBoIggTGxHi6sl5vmFiXNhoM42NLU0AQxAskCXKVl8iZCTPkw6s+wyBnmlXCvG611+R7jmTZmae1F1l2xpFtaYPewPIW8wB0AAAEj89/NUGiOdHd3X2n7M7THxzeyNhRL8vdEL+gUZvg013dqpn+N0ZWaOY7630fnTpT1G+gCK8Vez6MAKANOj0rZCJPgMfjEgAAlE6nMz958Ou5eoOj0WDKOdMLJQwAAG2TJYyJYW/lyV4gSZALvXDOTJg+H171GQY5meMJ89p+z/EFUPI2mTJ4adoiEQnA8YpdHu+L3TO/1dXV19XVz2oTU3dDExW5MjPWo71eOtN3kVgCIW9M3jdioIDgBcbH+hMAQI/IWhVBy57mCcsjallCAAkAQI+01A8Fp62J9eUSAARb5BskmeGXUkw5J3uBhGHEmBiOeIEkQa41VznD6FWfYZDzOZgwr9t1r4m/KTT5Apjpz18DAOdvX8ywsWXg3oUS/obcAwd5Fu1wc0VNS0TYK4sUuYilv65xbP9qwaPjXTO+gWes/UFp9Ia8D/cajWZ9X11jqyYKAKih+0U3hBtzP/mCa9HKZfWdfZQPAAAtryy8QKxdvfPABhEbzNrhpjuXBhTG6X7vxZRzT8yJ4YgXSBL0+nrlZxg0XxEb87e4OobZkcvlPj4+Dq78tOp6aubaC72OZpUwL4DwSfvwD0GV351vwJcpvhZedcKg188rzRk8w7x+Rgb7X7frXoyw6kJziiUJCSYV/SN6M3C849MSfQYf9ZrsrMuJyH03M3TSXyei9a1XT93vxbfyIISYzeYMg9zTa157YdWFXgFCFJq2cVugJ5cgaJOyr/ni5Rq779gxtV8/3O7U6BBC7m02Zxjknl7z2guhV8Dcff/0z/ddHQVC6PWEZ5jXH36rCiGEEELIedyv9sLHYNGsYMKgWcGEQbOFOYNmiy2Xy10dA0IIIYTQm4Lt6eXl6hgQQgghhN4IypEh97vniBBCCCHkvrD2QgghhBByHqy9EEIIIYScB2svhBBCCCHnwdoLIYQQQsh5sPZCCCGEEHIerL0QQgghhJwHay+EEEIIIefB2gshhF4ZMijnwMHtUSxXx4EQABmUvf+PW6O5QAblHPjyrRjW8x/mJ/eaPhPd68i6jEvZ3jEb9h78r+8uEc1pYK+UO8aMXAgTBiHkRtgB8YlBnJnWIoPW7v9ySxTz5z8lbygtqe4dm/PY3Na03TVbs+lets0SliQu562c4JF+Nc2bk3CcwB1jRi6ECYMQci+8yJXZS3qe1PebpluLvTAlnt10qdPO5//YUJsUAO94jZuhu2ZrvHsd2bPNEspkHCg/WdoTtiMuZm7CefXcMWbkQpgwaDbIoJx960037nPS16UuoB8e//lGD0WIF61av2Z5uA8fDCOdNbduVLSpKQAgxGEZOVnLIv3FpEnVdvto0dBEM2zflB27Ug23ThY1qSjXHQ1yCkIUmbk1Kz7Qg8smTENNpRduNI+CZ0zWhpykYA8OizYMN926UNwC0VZLmlQgCstYv3Z5mCeH1vXW3i4uk6koQdS6nZvjxLzIvQczLAPlJ07V0LYb0gC8iKQ4U+OxXs/VH+6NbDh0uEpJAwDwEwoOrNOe/77ElPXxbq/Sr8/JHAuYApYkbn3emqRgIaXtb7grFWRHdP1y6pEOCIYgmbqBDMrZl8euqhctXRHlw7Mou6pLrt7p0NJ2dufY9FEL5ijUZ93VYwawsxoZlLNvI6uyXpiSGu0nJPQD9aXF15rI9L3Td6//9GeM//bv/8O29qI1HXVNQHgsetnUcyJ3jBm5ECYMmiXSd8WGpY9unv7mnMZkooDwSSvYniy/evibZgXtEbXm7bd2EEcO3+unfNMKClJGb5z8vmmYEvoILUra62kDLEni9ndWmu6cwMLrzUAbFJ1VxdUdgzrwSt754frVMullKm1TvKb456+leuB6+ntZ1GRortUSmvBesW17sqL4n9/KNLyw3D0FBbrDh6sUspsXykP2R9b/duSRFgBYizZYbwgAIIxNDlfU/T5oURrq+1clxkmqK+Q0gDAqKVxbf6zHDAGzCvhipyR926aIgYv/OCVVs/xT8nfkC+RdAEB4pzIFSTM2TPouTRGdPP3jOS07YNmW9wo2qX4+81jNtLsObwenzxyFOt5d1LSrkf6pqd6nT/9cqCJ8kjfv3bimq+1C/YzdO+0ZA/DKI0IIOYClrLtRKpPrjGMmCgjf2KTAwQd3mhUmALNadreiwzspOZh8try0cdBAUWOa4VE9DQBA06KYze+sJstPF9YrsfB6Q1gUT2SDOguARdXZPsLxEHMptULJW5iUFOHHhzHV4JCWtl1C+MQtCRmqvCtTW4DWPamqVwTHRXgS1o3bbggAhFf8kpD+msZRGmhlU32XJH6xHwFAeMQkhMrrawdnSD3bgAmfmAS//sq7UpUZaONQzf0GOQUA4GCQE8H21FR2aCxAGwcfldfpQ+PCeMy7c3j6zEmok7pr+iOydD+ukKrMACZ5U0sP6S0RgwPdO90ZA5juOSKEELJiUchVE7/WkyKx0KJW68f/bdKoDAIPIUmyREKLWqW3+v2fE52VTXAoqd5ocV7AyLW4AYvTVyWH+fKAolkiX3KknqDlVSeOalemZ7yXsUHZWnmz9OETmyW9Yg8RK3jN3s9WAQAAQXLMKo7tU6kMTenAb3GiX+f9Zg0AAOikNW1rsxMC7w7r4xcH9dVdVtAAdssj5oAJoVBgUavG85zWaLQ0AADpWJDjKL3OON6EVq2BhUI+AZS/ze5IkYPTZ05CJSZ317RHRGk14+1SFAUEQTjSvdOeMbD2Qgih2aI0ai1rkaeAAA0NAMDx8OLrVVqKNun1LImHAEAzZfX+siNF+qyP8vKXD5+pVuCVr9cfK2zN7g2+1SdOFfYZKMIr7YP9kQAAYBhqun2hqUwQtCy/4J0N2m/PN1st+e6eVmfuqvjlTK1haosEWJUk1k0VqZIXC1qut49vZ2yrlW7IS1jYoFns+6SyWc18Q3DagGm93sCSiPkAWgAA4PF4BAAApbMTJDNSKB6fKoTYUwx6nYG0sztHps/chMoKmtxddlezW63Ornutzxh4zxEhhGaLljc/7vVLzYz2ZgOwxBGrVixSNdT1U9RwS+Nw0IrMWAmHAJLn7efFAwCgtBqtuuV6YYNH9vZVITO+JQC5P5ZAyB+T9w0bKCD4QQlx/gQAEB4BCyU8EoDSy/tGDCSLRdosgeHmusGQ9LVxvlwCgGCL/IJ9eAAAtFGnoyWBAXwAxqa4ockJ0PS46/m3IE3ddY1UVPqaOI+2ulY9Y5gzBEyPSJsVwanpi0QkAMszOnVxAAkAQNsL0k7bC5ekhotYANyApelJ/K6mTiPj7hycPnMSKmdqd83yiGbdvVZnDMDrXgghNGv0aHXhefa67A8+38QnzaondRfOlPdbAGDo3rmLrNzMvV9sFpDm0dabxy6NjG9j7LpdVP7unrdy+w4Vt+lcGDx69cba7pfE5OXv22c0mvV9NQ0tmmgAQhSWuXXlAjFpMZt1Qy3F15oNomVWS/S0peLceSI7693P8kRsMGmHm0qL+uVGGgyt98sT8vP/9CU9UH7i2BOrpjoXZGbr6o/3Tb6oaumvbRw7kCmoPjrzOxQYAwZq8F7hNWFe3mdfcsxaubS2s9fiAwBAy+0EyUgvkxmX7jrwtoRPKbuqzl+p09A08+4cmz7XXz5UIjo5akp3ze6IZt29VmeMf//3/4dYt3HTjFshhBBC6E1G+Kbv/zC44uuz9Y6/DosMyvl4l2fpN+dbnfqs44uE6kTKkSG87oUQQgghWyzJghCWom9YZwaOd0J6ks/Aw15773blRm7cs2bRpD//Q+tbik+1AxDTPeLvklDnAay9EEIIIWSLEIelbyoI9OKSQJuUvY1Flx7beYsXwFjb1V/brBeSQc56ffVsQp0H8J4jQgghhJCTKEeG8HuOCCGEEELOg7UXQgghhJDzYO2FEEIIIeQ8WHshhBBCCDkP2zQ2L19/gRBCCCH0OsLrXgghhBBCzoO1F0IIIYSQ82DthRBCCCHkPFh7IYQQQgg5D9ZeCCGEEELOg7UXQgghhJDzYO2FEEIIIeQ8WHshhBBCCDkP1l4IIfTKkMG5n//l7RiWq+NACIAMXvfHgwUxXCCDcz//68441vMf5if3mj4T3esAtvUCQrhgaWb2yvgwHwFhkHc8unmxVKqk5j7IueSOMSNXY0vict/avGLs1n/8/lDr6mAQYgcujieldX34h0YQM8cyhAxed+B9j5v/eb6VYT1qpK7kKqcXc2zCtN01W7PpXuvai+D5RQab6wp/Otan5wSkFLxXsFn+3bEaLf3yYb0y7hgzcimWJCH3ndwFw31qmufqWBACAOBFZ+QufdJZ3zeGJy7ExLEMYYcuW8xuKGy38/k/NiRtAcA7XuNm6K7ZGu9eR/Zs9W/a0HX7YtfTny2DdQ19uWt9PAiY13WMO8aMXIoyGfvvHrnZHbErIdbVsaD5jwzO/TRv7EoZZ/XGtFC66vD3V7spwiMia2NOaqSvgDYMdzy8cfWeTEUBACFetHpDzoqoADFrTCm9+du5wYlm2H7Ldr2XZrhx5HyDaup1eWHMxne3Joj50Z/8l0xz/92zzTEfpHX/8/s7QzSQoRv+ZX/qSOF/Hn+kBeAv3n0wc+TwP0q0ixj3juYNQhydvT07IdiTxybGButLzl1tVIBnbM7m3ORgTy6b1g813Dhb1ETHWC1pUIJo0eq89SvCvbiUtudxyYVSqYqyypAjxx5SthvSALyolART/eEer6xPPo6u/eHQAyUNAMBP3Pl5rvb011dN2Z+971Xy1elWxwKmgCVJ2Lg1Z0mIkNL01d1pFa6L6vjxaLUWCIYgmbqBDM79dAu7olaUmhbjy7eMdjy4VlzapqHt7M6x6aMWzlGoz7qr2wxgZzUyOPfTzaz7tcLlabH+QkLXV1tSdLmBXPXx9N0bMP0Z47/99/9hc89xMs6CsABjz0O5O81pd4wZORutaatpAMIzgnB1JMhNkL5p+anV14//7ZTaZKKA8M3YuWPJ8KV/ftWooD2j1u16Zzfx6y93+ii/jJ07l41ePfL3hmFK6COilLTX0wZYkuQdezJMt2wLLwDQtV47ezfk0+jan36r1tJAeLMG82PDPMqGVERQXLRlaDQ4LlLwuFbPWhAeauyoGJZk/IFp7xZn9wqyj9bL2ysvPGgb0IJ3yu5PNmZJWy5aVm1JUBf9cLxVB1yvAC+LigzLs1pCE5K0HTtSRop+/lurmheet3fHTt2hQxXyqRkCrPBN1hsCAIjiUyLljw8NWEb1NX1ZyQk+leUjNBDCmORIbe1v3WYInFXAhe0+q3Zsiewv/O5oi4odsGzru1uFwx0AQEhWMgXJfL2D9Fu+XHT0+DenNezAFQV7d2xR/XDioYppd20SB6fPHIU63l3UtKuRASvTJCeOf3dOSUhStu/Pz+mQnq2dsXunPWPAdFceCVHsxrzovhslMve5N+yOMSOE3ABbWXP1ZuuIzjhmooDwi18S1H+/tFFuAtqskpbea5ekpCwgCb/4JcED90vqBw0UNaYZVuhoAACaFsVte28NWXb8bO2oA78W0sr2dnlQeBgPyMDYGEJW+nAoNDaCB2RQRBjR0dYnYd77q+4CNCsWeWfrgNYCYFG2tw1xPT14tFqh5IWmLIn048OYcmBIQ1M2SwjfhKULBivutKosQOs6H9TIQ+KjPG1+SbTdEAAI74SlC/se1StooFWNNR0+iUn+BAAhjk9aNFJbMzBD6tkGTPrGJfr3VdxuUZqBNgw+uls3QgEAOBjkRLBPHlZ0qC1AGweq7tbow+LD+QTj7hyePnMS6qTumv6ILE+q77YqzTSY5A1N3SyJrwc40L3TnTGA4Vn7p0ivhPzdeV4Pj52sV7nLrTt3jBkh5B4sihHlxHmFFImFZrVKN/5vk1qpF3gKSZIUi8xqpc7qBMSJzckl2JYWvcHB6/H0SHubdnnkAu5IaDSn7Wprq2ZkdUwEf8hvEb/rXrdFFM24dwC83D9/8AKTVmWlhPvygaJYIj9yuBbokYojv2nSV2fuPbhZ2Xz/eklll82SHrGnmBWSs/9g1tNmSI5ZybF9KpWhKS34JS3xa7/bqAEAoLUtj2Tr1ycF3S7RLU4M6n18QU4DTHehnyFgQiSanGm0Rq2lgwCAdCzIcZReZ3g2JWi1SkOECvkAlO3uSJGD02dOQiUmd9e0R0RpNfpnMVEUDQRBONK9054xmGsvtu/Sgt1ryPu/n3w4ZLLbnfOLO8aMEHIb9OQPBEqj1rLDvYQEqGkAAI6nl0Cn0lL0mE7PXuApANBM2bav9NB5Xc7HW7anDh2vtPNABA3w/ORN9cs6qM0R8cowrvRGt2lU06pKi43v85T01XUaKQHz3uf8mNELY4Vnv5/vX/n7sTO9eorwzvjo0ygAADAMNtw623BbGJy69Z09mzT/+3Sj1ZL/vKPRmjrLfzzxWD+1RWJqhtg2dU61NFnQfFlmePb/Rtnj5vzNiaG1miS/room9fRXJBgDpnU6PdtHzAd4+lVwHo9HAABQOjtBMiNFHuPJSnh4iWm9Vs+8O71D02duQmWFTO4uu6sRYDX3x83YvdOeMRjuOXID03ftyaLKjl2oVxJcLpfL4bDm+0Mx7hgzQsht0SOND7sD0tbGerMBWOLIrPQIZV1NL0UNNdUNhaRnx/twCCB53v7ePAAAi0atVTVdPlsnXr8jawGHsUWjTk/7BAXwnn26WrrbugTRaYsFbY3dFqDlLa3a8IxlQQNtbTq7e3dmD6DpsQQivnGkZ0hPAcEPTkwIJAGA8AwMlfBJAEon7x3Wk2wWabMEhhprBhesXpfgxyMACLbYP8SHT4B1htg2xV20JJFufNjx/NqDqau2nopZnZPgKatp1tkNdZqA6eGWRnnIytURYhKA5Rm7MimQBACg7QVpp+3QpSsjxCwAbkBqZrKgs6HDSDLtzsHpMyehcqZ21yyPaNbdazVnwfa6Fzd2zYZobzZs/1PS9mfbaB8d/ttF2Tx+itMdY0YIuTFaUXnmFHvj+n1/3sonTMonNWdPlPVZAGCw7NQ5dl72vr9sF5Km0ebrhwuHx7cxdpacL/vDH3bm9f6jSGpzrtY33y1bvHXbn/8V+st+/7V82NTV1u2ZGFJ3/YkZAOjhVplpzSp9XbuKBgB7e0fzxZj07rW4Ldv++KnBYNL1PKprVMcAEKLwtW9lLPQgLSaTbrDpQnGjQbTCaometpSfOkOsX/v+F1vEHDBpBhtKzvXJDVYZcrjTqqn2hdm52trDUypwS+/j+rF/WSus/G3mdygwBgzUQNnpy6Ktm7/4K9esHW553N5j8QUAoEfsBMlI19pqTH3vT7skfErZUXH6Uo2appl359j0ufLyoUJMSuyU7prdEc26e63OGP/+3/9fIit73YxbIYQQQuhNRvit/vSTkPKvTtYaHd6GDM797H2vG1+dbnHqLwcvEqoT6dTKad8xgRBCaG5xo/P35oRP+isptL6p6Pc73XjPEM07LJ+FC0l5z4jODBxJ4qolvv1V3fYu8jAm9lEZwPTP+Lsi1HkAay+EEHKiMWnxT1JXB4GQIwhx+KqtO4O9eCTQJmV33bnCaoW9h/YZE5sMjnvFIY6bTajzAN5zRAghhBByEp1aia/jQwghhBByHqy9EEIIIYScB2svhBBCCCHnwdoLIYQQQsh52Bwu19UxIIQQQgi9KfC6F0IIIYSQ82DthRBCCCHkPFh7IYQQQgg5D9ZeCCGEEELOg7UXQgghhJDzYO2FEEIIIeQ8WHshhBBCCDkP1l4IIYQQQs6DtRdCCL0yZFDOgS/fimE5f7/Z+/+4NdrhV2e7Kk7kTBNZMTHc83zcyaCcAwe3R7lu+ryy/mFbL+D6JWasWhEX6ifmECZVT8Pd4lvNCsuc73dOuWPMyNXY3jE52/KWj93++/EarauDQa8TdkB8HCmr7ze5cr+UvKG0hN0/5uQY0KvjWF6RQWs/2i2+/d1FGcPYY1ZYe95d1BxPn2kHgqH2IoUiquvWicudoyaOJG7Trk2bR/uOVKvolwjhlXPHmJErsSRxOW/lBI/0q2meq2NBrxte5MrsJT1PnF57We13bKhN6twA0CvlWF6xF6bEs5suddqpGsazAu94PfW8u3ixjNPnhTtqhoGwrb0MXRV3up7+OKaQSQfpbE8RAfO7jnHHmJErUSbjQPnJ0p6wHXExro4FzX9kUM6+PHZVvWjpiigfnkXZVV1y9U6HlgZCFJm5NSs+0IPLJkxDTaUXbnT5Zu/cHCfmRe49mGEZKD9xqgYAzKTf0u3pyyN9BaRhsPH25asNNtflCZ/Ve/dGNhw6XKWkAQD4CQUH1mnPf3/9iUUUlrF+7fIwTw6t6629XVwmU1FPQ1pvunGfk74udQH98PjRzti3p+5XkP3xbq/Sr8+1WghxWEZO1rJIfzFpUrXdPlpYZ4qwCrt51Pm9+pqzzY3mUfCMydqQkxTswWHRhuGmWxeKWyDaakmTChhGXBC1ziqvaNsNaQBeRFKcqfFYr+fqD5nSqcSU9TQrZI4FTAFLErc+b01SsJDS9jfclQqyI7p+OfVIBwRjWtqaxdxpHqXAOleLhiZaYvum7NiVarh1sqhJLZijUJ91Vw/HpnvHp8+kjmJuh7QZ08kD0WMGMihn30ZWVZPHsuWREp5JLr1ztfLmyJBN7TWBJQiIXpUeMlJzf4ixS+cjd4wZuQCt6ahrAsJjkasDQe6C9F2aIjp5+sdzWnbAsi3vFWxS/XzmsZo2KDqriqs7BnXglbzzw/WrZd9fvHmhPGR/ZP1vRx5pAQBIAYAgJtbz5KmfCjWEd+LmDzdkdcoKG41T26cV9fX9qxLjJNUVchpAGJUUrq0/1mMmvFds256sKP7ntzINLyx3T0GB7vDhKgUNAKTvig1LH908/c05jck0Zuq13S8AABC+aQUFKaM3Tn7fNEwJfYQWJU2T1mFLL3Y6szffBLa5Ib1MpW2K1xT//LVUD1xPfy+LmgzNtVpC2xlx2dS8Yi3aYL0hAON2LrAAABy4SURBVIAwNjlcUff7oEVpYEwnCJhVwBc7JenbNkUMXPzHKama5Z+SvyNfIO8CAMI71V5a2nJ07kgvdnjb5KrX0zZYksTt76w03TlR1KSiAOYo1PHuovQDDNN2KjvtkKHWYzq1ZQASgPRbnsI/fvLHswZhQv77Be8vuPlv9UwX1Fjhm7/4P/6vvx48kL9o9MGtx4Nmh7PNddwxZoSQ26B6aio7NBagjYOPyuv0oXFhPACwKJ7IBnUWAIuqs32E4yFmfLbd0l3zoE1jATCPtrT2kt4SMWGzDq1squ+SxC/2IwAIj5iEUHl97SBF+MQtCRmqvCtTW4DWPamqVwTHRXg+25qlrLtRKpPrjGMm+79rEr6xSYGDD0obBw0UNaYZHtXTjoaNXoptJ1NqhZK3MCkpwo8PY6rBIS1tu2TaEX/OdkMAILzil4T01zSO0nbSabYBEz4xCX79lXelKjPQxqGa+w1yCgDAwSAngnVw7jDmKgBNi2I2v7OaLD9dWK+k5i7USd01M3vtzDQQz3qgu7a6U2sBi1oq66f0bcBwzxEALB2Xvv5fl0iO2C88beNbH3pf+Ola13x/Ns8dY0YIuQ1Krxu/VEVr1RpYKOQTQPkvTl+VHObLA4pmiXzJkXrGzx9Kq9GP/0hRQBCMa+mkNW1rsxMC7w7r4xcH9dVdVtBAij1ErOA1ez9bBQAABMkxqzjjzyhaFPKZn6wgRSKhRa3ST16RG+BQ2OhlMHQyLa86cVS7Mj3jvYwNytbKm6UPn9gs6Z1uxJ9jaEoHfosT/TrvN2sAgDmdYLpxZgiYEAoFFrVqPHlpjUZLA8D0aWnL0bnDlKsAwInOyiY4lFRvHL9TPyehElO6ayb22pl5IAAAKJ3W8OwniqaNBmCuvZ6tYtIMtpbXpqSmLvQmu2aqmOcHd4wZIeQGSKFYQICGBgBC7CkGvc5Ahq3ZvcG3+sSpwj4DRXilfbA/EgAAXvRJU2NbrXRDXsLCBs1i3yeVzWoagNJpdeauil/O1Bqmrsv0Icq4X1qv17MkHgKA8U8Clp2w0Ryy18mGoabbF5rKBEHL8gve2aD99nyz1ZLv7tkdcavxtW6qSJW8WNByvX18O4Z0mm3AtF5vYEnEfICnXwXn8XgEwDRpyczRuWObqwAAQPWXHSnSZ32Ul798+Ey1gpqbUFlBU7trhmk7zSHPNBB2OsXq3xzfsKggDx4JAATHKzwtOVjf2zs6v4sYd4wZIeRWWAuXpIaLWADcgKXpSfyupk4jSyDkj8n7hg0UEPyghDh/AgCANup0tCQwgD/7fZi66xqpqPQ1cR5tda16AAB6uLluMCR9bZwvlwAg2CK/YB871xfs7JcabmkcDlqRGSvhEEDyvP28BIxhoznFmBuER8BCCY8EoPTyvhEDyWKRNkvA3ohPHV/bprihyQnQ9Ljr+bcgbdNptgHTI9JmRXBq+iIRCcDyjE5dHEACzCotARyfO7a5ygMAoLQarbrlemGDR/b2VSGcuQmVY9VdM01be+04MhCMrK97EfzAlHWbCvyELKAsRmVvy43jtzvm+c07d4wZIeRW9DKZcemuA29L+JSyq+r8lToNTbfdL4nJy9+3z2g06/tqGlo00QAAhtb75Qn5+X/6kh4oP3GkajY7sfTXNo4dyBRUHx3/ajotrzh3nsjOevezPBEbTNrhptKifrmR6Xd0O/ulhu6du8jKzdz7xWYBaR5tvXnsCmPYaC6NMeUGIQrL3LpygZi0mM26oZbia80G0TKrJXraYmfEp4zvsSdWTXUuyMzW1R/vm3zRwTadZhkwUIP3Cq8J8/I++5Jj1sqltZ29Fh+AWaUlzGLu2ObqpZHxRoxdt4vK393zVm7foesvHyoRnRw1tbtmmrZ2DtlmTJkGggmxbuOmmQYFIYTeYGRQzse7PEu/Od+Kr2xGby7CN33/h8EVX5+td/zahovmzouE6kTK6d4xgRBC6Bnm5+NfEDdy4541iyb9nRJa31J84l4PPimB5heWZEEIS9E3rDMDxzshPcln4GGvvZtpjFl9qn2O586chDoPYO2FEELONdZ29dc2VweB0IwIcVj6poJALy4JtEnZ21h06bGdt3jZyWoyyFmvr55NqPMA3nNECCGEEHIS5cgQ/lUnhBBCCCHnwdoLIYQQQsh5sPZCCCGEEHIerL0QQgghhJyHbRqbl6+/QAghhBB6HeF1L4QQQggh58HaCyGEEELIebD2QgghhBByHqy9EEIIIYScB2svhBBCCCHnwdoLIYQQQsh5sPZCCCGEEHIerL0QQgghhJwHay+EEHplyODcz/+6M47l6jgcRXinffxf31sucnUc6FUgg9f98WBBDPd5Ws7z/CSDcz//y9sxTg/PtqPmfA/2/0sQtfnz//v/LIidr4PCxB1jRq7BlsRt2v+Xf/tgGX7KoLnFDlycFMx1dRTodeNYXpHB6/7414IY5vWokbqSq5U9+MdsJjzvrindOwcdNe1A2K+9CHFC3qYFJiX9Ert2NneMGbkES5KQt/8PqwVqNSYLmmu86IzcpcEcwtVxoNeLY3nFDl22mN3wqN1O1TA2JG3p1c19cO7qeXdZde9Ld9QMAwFsxqWkJGV7Dq/iavOyAp+X2LlTuWPMyEUok7H/7pGb3RG7EmJdHQua/8jg3E+3sCtqRalpMb58y2jHg2vFpW0aGghxdPb27IRgTx6bGBusLzl3tdMv992tCWJ+9Cf/JdPcf/fIsYcAYGH5p769akW0n5A0DNTfLCquk1uY9kOIF63ekLMiKkDMGlNKb/52bjD1QN7YlTLO6o1poXTV4e+vdlOER0TWxpzUSF8BbRjueHjj6j2ZigLSMzZnc25ysCeXTeuHGm6cLWqiY6yWNChBtGh13voV4V5cStvzuORCqVRFAQCwfRM3blmbHCSwaAcaqwac2revLdvcaFTACw+TMGajVV5RthvSALyolART/eEer6xPPo6u/eHQg6fXIviJOz/P1Z7++qop+7P3vUq+Ot3qWMAUsCQJG7fmLAkRUpq+ujutwnVRHT8erdYCYSeXrM1i7jQqKIYpMNES22/ZrvfSDDeOnG9QC+co1Gfd1c216V7BepuOYm7HdupNHohuM5DBuZ9uZj2o90xNi/LhmkZab126f7tZyVR7sfwztqWN3fq9Wpmy/IUTz8ncMWbkMrSmraYBCM8IvDaBHEP6LV8uOnr8m9MaduCKgr07tqh+OPFQRevl7ZUXHrQNaME7ZfcnG7Okfy+8dvZuyKfRtT/9Vq2lAYAUAAhi4z2PHfvurJrwXrL9k03ZHdIz9QabXRB+GTt3Lhu9euTvDcOU0EdEKWkvIH3T8lOrrx//2ym1yUQB4Zuxc8eS4Uv//KpRQXtGrdv1zm7i11/uDIau2pKgLvrheKsOuF4BXhYVGZZntYQmJGk7dqSMFP38t1Y1Lzxv746dukOHKuQ0GZi1c3NE97lvf29Vs3xTtr2/gjX82Pk9/LqxzY2Wi5YXH6bWqXnFCt9kvSEAgCg+JVL++NCAZVRf05eVnOBTWT5CAyGMSY7U1v7WbYbAWQVc2O6zaseWyP7C7462qNgBy7a+u1U43AEAhGQlYy4xNuzo3GkpbJMwTAEAAGBJknfsyTDdOnK+QUUBzFGo491F6foZpu1Udtohw6zHdGrLACQA6b9imeD3I1+fNIgSt32046PQ2//2/9nec+QsXLN1yfC1iw0a97kd444xI4TcCPXkYUWH2gK0caDqbo0+LD6cTwBY5J2tA1oLgEXZ3jbE9fTgMZXzlicPy2VqC4B5tLG5myXxETOsRfjFLwkeuF9SP2igqDHNsEJHAwCwlTVXb7aO6IxjJgoIv/glQf33SxvlJqDNKmnpvXZJSsoCklIrlLzQlCWRfnwYUw4MaWjbJYRvwtIFgxV3WlUWoHWdD2rkIfFRngSQfrHxPn0P7khVFqDHRmruN8gZL2CgWbLNDfolhsmK7YYAQHgnLF3Y96heQQOtaqzp8ElM8icACHF80qKR2pqBGcbVNmDSNy7Rv6/idovSDLRh8NHduhEKAMDBICeCdXDukMxTgKZFcdveW0OWHT9bO0rNXaiTumtm9tqZaSDGe+DRg06tBSyqltZeSicF23uO/Mh12yI7LvzWpgdwl2sC7hgzQsitUHqd4dmZlFarNESokA9ABSatykoJ9+UDRbFEfuRwLfO2Wo3+2bYURQNBMJ2nSJFYZFYrdVYfBBbFyPNHWEmRWGhWqyYeQzGplXqBp5CkuyqO/KZJX5259+BmZfP96yWVXSPWS3rEnmJWSM7+g1nP2uKYlRwegEYoFJhVE/ulNWoNHfBifYQm4dnmBm0zKI4PkxWGprTgl7TEr/1uowYAgNa2PJKtX58UdLtEtzgxqPfxBTk9/QckQ8CESDQ532iNWksHAQDpWJDjHJ07dqYAJzYnl2BbWvSGiVuFcxEqMbm7ZmSvnRkH4mkP6LTPeoCiaNqoB5vaSxCfttTPb+y9gylPWxfwyR1/Dmu+9P3Zpnn7zQh3jBkh5F5IkYeQADUNAISHl5jWa/Ws8Oz38/0rfz92pldPEd4ZH30aBQAANMDUTznakV+sab1Oz17gKQCY8mEwZVtKo9ayw73GAwGOp5dAp9JSAGAYbLh1tuG2MDh16zt7Nmn+9+lGqyX/eUejNXWW/3jisX7qgen1eraPmA+gBQAg+AIB/gr70uzlxgsPExDWeWXd1DnV0mRB82XZ+N1so+xxc/7mxNBaTZJfV0XTDN8rYgyY1ukm5wbweE+v61I6O0Eyc3Tu2JsCfaWHzutyPt6yPXXoeKWcmptQWSFTu8t22k4xzSHPNBDAeAawuueorzv79//4+odvf/jx2x9+/O5k1bBBWvzTz8XS+VzEuGPMCCH3wgpdujJCzALgBqRmJgs6GzqMpEDEN470DOkpIPjBiQmBJAAAbdTpaZ+gAN4sL8NTQ011QyHp2fE+HAJInre/N9PVjsaH3QFpa2O92QAscWRWeoSyrqaXIjwDQyV8EoDSyXuH9SSbRdosgaHGmsEFq9cl+PEIAIIt9g/x4RMA1HBry2jIytURYhIIjndCWqIfvvbxpbGYcuNlhskqr2yb4i5akkg3PuwwTcRg6qqtp2JW5yR4ymqaZ/rKHmPA9HBLo/xZbgDLM3Zl0rMctxeknbYdnDt2poBFo9aqmi6frROv35G1gDM3oXKsumumaWuvHUcGgpH1PUezQTtRcRKCMQtt1mu0Bsbv5Mwb7hgzQsit6Fpbjanv/WmXhE8pOypOX6pR07T07rW4Ldv++KnBYNL1PKprVMcAAOib75Yt3rrtz/8K/WW//1rh8B6owbJT59h52fv+sl1Imkabrx8uHLZeh1ZUnjnF3rh+35+38gmT8knN2RNlfRYgReFr38pY6EFaTCbdYNOF4kaDaIXVEj1tKT91hli/9v0vtog5YNIMNpSc65MbwNJ3+9QVwZbNX/wrz6IdaiirboyKmMOOezONMeUG8TLDNDWvDndaNdW+MDtXW3u4d/IzXZbex/Vj/7JWWPmb3TcdTB8wUANlpy+Ltm7+4q9cs3a45XF7j8UXAIAesRMkI4fnznRTwNhZcr7sD3/Ymdf7jysvHyrEpMRO7a6Zpq2dQ7YZU6aBYEJkZa+baVAQQugNRgbnfva+142vTrfgr3TozUX4rf70k5Dyr07WGh3exkVz50VCdSKdmvEdEwghhKzM4VNQ3Oj8vTnhk/78Bq1vKvr9Tjd+wRDNLyyfhQtJec+IzgwcSeKqJb79Vd32rqExZvVRGYBzvgQ3m1DnAay9EELIucakxT9JXR0EQjMixOGrtu4M9uKRQJuU3XXnCqvtvpKBMavJ4LhXHOK42YQ6D+A9R4QQQgghJ9GplfiFFoQQQggh58HaCyGEEELIebD2QgghhBByHqy9EEIIIYSch83hcl0dA0IIIYTQmwKveyGEEEIIOQ/WXgghhBBCzoO1F0IIIYSQ82DthRBCCCHkPFh7IYQQQgg5D9ZeCCGEEELOg7UXQgghhJDzYO2FEEIIIeQ8WHshhNArQwblHPjyrRjWXK5pv4Xs/X/cGu2s12W/fMDIySYyZGLs5vkgkkE5Bw5uj3J6eLYdNdfYNktY0Vv+9G4S/9m/KEX54Z9v9FFzvuM55Y4xIxdje8fkbMtbPnb778drtK4OBr1O2AHxcaSsvt/k7B1T8obSEnb/2Jw05rKjQHY4NiJk0NqPdotvf3dRxpAHc5ohr4Xn3UVN7t456KhpB4Kp9uKKhKSs+JtTDUYAAJqmLPO/iHHHmJELsSRxOW/lBI/0q2meq2NBrxte5MrsJT1PXFG1jA21SeeoKRceBWLk2IiwF6bEs5suddqpGsYzBO94PfW8u3ixU7r3pTtqhoGwrb0IoUg4plYZzGbLi+7T6dwxZuRKlMk4UH6ytCdsR1yMq2NB8x8ZlLMvj11VL1q6IsqHZ1F2VZdcvdOhpYEQRWZuzYoP9OCyCdNQU+mFG12+2Ts3x4l5kXsPZlgGyk+cqgEAM+m3dHv68khfAWkYbLx9+WqDws6pinlNQrxo1fo1y8N9+GAY6ay5daOiTU0BGZSzb73pxn1O+rrUBfTD4z/f6AvI+Xi3V+nXhdqMj7YniggAAI7Ag9167n9dkFJ2G9nIqqwXpqRG+wkJ/UB9afG1RmP4uqlH8UgltD7S5lEnjoAbss2N5lHwjMnakJMU7MFh0YbhplsXilsg2mpJkwpEYRnr1y4P8+TQut7a28VlMhUliLIakRradkMagBeRFGdqPNbrufrDvZENhw5XKWkAAH5CwYF12vPfl5iyPt7tVfr1OZljAVPAksStz1uTFCyktP0Nd6WC7IiuX0490gHBECRTN8xi7jSPUkCIwzJyspZF+otJk6rt9tGioYmW2L4pO3alGm6dLGpSC+Yo1Gfd1cOx6V5Btk1HMbdD2ozp5IHoMT+bYlVNHsuWR0p4Jrn0ztXKmyNDtrUXl8/lx2/9LJbNBsNod2P59bJWe+eJ+cIdY0auRGs66pqA8Fjk6kCQuyB9l6aITp7+8ZyWHbBsy3sFm1Q/n3mspg2Kzqri6o5BHXgl7/xw/WrZ9xdvXigP2R9Z/9uRR1oAAFIAIIiJ9Tx56qdCDeGduPnDDVmdssJGI+NumNYc80kr2J4sv3r4m2YF7RG15u23dhBHDt/rpwFI3xUblj66efqbcxqT6flHH9Vb9st3ZQBA+izb815Sb1WnhfBJt9uIf2qq9+nTPxeqCJ/kzXs3rulqK2y0OgoAmyOVXux81Z3u1mxzQ3qZStsUryn++WupHrie/l4WNRmaa7WEJrxXbNuerCj+57cyDS8sd09Bge7w4SqFbOqIsBZtsN4QAEAYmxyuqPt90KI01PevSoyTVFfIaQBhVFK4tv5YjxkCZhXwxU5J+rZNEQMX/3FKqmb5p+TvyBfIuwCA8E5lCpJmbNjRuSO92OGdVlCQMnrj5PdNw5TQR2hR0l5P22BJEre/s9J050RRk4pizsYXCHW8uyj9AMO0ncpOO2So9ZhObRmABCD9lqfwj5/88axBmJD/fsH7C27+W73NBTWq79ZvP3z7/bf/8dXX35+u1EVv3p0VPF8fwxvnjjEjhNwJ1VNT2aGxAG0cfFRepw+NC+MBgEXxRDaoswBYVJ3tIxwPMeNz7pbumgdtGguAebSltZf0logJO3thWJPwjU0KHHxwp1lhAjCrZXcrOryTkoOfnrpZyrobpTK5zjhmsr3qwPJP35zBriq+02eathFL9+MKqcoMYJI3tfTYCc+xI0XP2fYYpVYoeQuTkiL8+DCmGhzS0rZLCJ+4JSFDlXdlagvQuidV9YrguAhPmwGx3RAACK/4JSH9NY2jNNDKpvouSfxiPwKA8IhJCJXX1w7O8CiObcCET0yCX3/lXanKDLRxqOZ+g5wCAHAwyIlgHZw7z7K0tHHQQFFjmuFRPQ0AQNOimM3vrCbLTxfWK6m5C3VSd83MXjszDcSzHuiure7UWsCilsr6KX0bMD3vBRaDVgcAYNENNd58sPjg8kU+pX1DjkTnOu4YM0LIfVB63filKlqr1sBCIZ8Ayn9x+qrkMF8eUDRL5EuO1DN+/lBajX78R4oCgrD/KWW7JikSCy1q9fhiMGlUBoGH8FnZpJCr7JznOCGr81ea7v32YMgCwJquEUfC4wY4dKRoAkOP0fKqE0e1K9Mz3svYoGytvFn68InNkl6xh4gVvGbvZ6sAAIAgOWYVx/apVIamdOC3ONGv836zBgAAdNKatrXZCYF3h/Xxi4P66i4raIDpBo0hYEIoFFjUqvHsoDUaLQ0AQDoW5DhH5w4pEgktapXeKqM50VnZBIeS6o3jd7PmJFRiSnfNxF47Mw8EAACl0xqe/UTRtNEAjLXXZASLpM0m93rY0h1jRgjNb6RQLCBAQwMAIfYUg15nIMPW7N7gW33iVGGfgSK80j7YHwkAAHP7Sx+lUWtZizzHdw4cDy++XqWd4RoGLyxra5Kq5PDjp7/9v0Ajk4+CZedIkT32esww1HT7QlOZIGhZfsE7G7Tfnm+2WvLdPa3O3FXxy5law9QWCeu8sm6qSJW8WNByvX18O2NbrXRDXsLCBs1i3yeVzerp05IxYFqvN7AkYj7A0zvPPB6PAACgdHaCZObo3KH1ej1L4iEAmFIPUf1lR4r0WR/l5S8fPlOtoOYmVFbQ1O6aYdpOc8gzDYSdTrH6NyEKiY0M8OCyAEhhYHLuioDeRplyfl9AcseYEUJuhbVwSWq4iAXADViansTvauo0sgRC/pi8b9hAAcEPSojzJwAAaKNOR0sCA/gzteggWt78uNcvNTPamw3AEkesWrFI1VDXP23tJYjM3RQ9cO1q7fhFsVk3MvUomI8U2cfYY4RHwEIJjwSg9PK+EQPJYpE2S2C4uW4wJH1tnC+XACDYIr9gHx6A9YjYNsUNTU6Apsddzy87mLrrGqmo9DVxHm11rXrGMGcImB6RNiuCU9MXiUgAlmd06uIAEgCAtheknbYdnDvUcEvjcNCKzFgJhwCS5+3nxQMAoLQarbrlemGDR/b2VSGcuQmVY9VdM01be+04MhCMbK97CUJXrt20zYPPgjH1gPTh2bMPHbob6lLuGDNCyI3oZTLj0l0H3pbwKWVX1fkrdRqabrtfEpOXv2+f0WjW99U0tGiiAQAMrffLE/Lz//QlPVB+4kjVS++ZHq0uPM9el/3B55v4pFn1pO7CmfJ+yzTffid8klclewkMuXsP5gIAWHru/FrYMMtGph7FI8YjRXaNMeUGIQrL3LpygZi0mM26oZbia80G0TKrJXraUnHuPJGd9e5neSI2mLTDTaVF/XIjPXVEjj2xaqpzQWa2rv74lPdaWvprG8cOZAqqj9p908H0AQM1eK/wmjAv77MvOWatXFrb2WvxAQCg5XaCZOTw3KGG7p27yMrN3PvFZgFpHm29eezSyHgjxq7bReXv7nkrt+/Q9ZcPlYhOjpraXTNNWzuHbDOmTAPBhFi3cdNMg4IQQm8wMijn412epd+cb8WvT6M3F+Gbvv/D4Iqvz9Y7/s5RF82dFwnViZQM75hACCFkzf7z8S+AG7lxz5pFk76MTetbik/c68F3QqP5hSVZEMJS9A3rzMDxTkhP8hl42GvvZhpjVp9qn+O5MyehzgNYeyGEkHONtV39tc3VQSA0I0Iclr6pINCLSwJtUvY2Fl16bOctXnaymgxy1uurZxPqPID3HBFCCCGEnEQ5MoR/1QkhhBBCyHmw9kIIIYQQch6svRBCCCGEnAdrL4QQQggh52Gbxubl6y8QQgghhF5H/z+UgPQRzq9TVgAAAABJRU5ErkJggg==;" vertex="1" parent="1">
          <mxGeometry x="18" y="1060" width="809" height="165" as="geometry" />
        </mxCell>
        <mxCell id="pUUdd5UQNy8CdgNerI3H-13" value="&lt;font style=&quot;font-size: 24px;&quot;&gt;Misc_objects&lt;/font&gt;" style="text;html=1;strokeColor=none;fillColor=none;align=center;verticalAlign=middle;whiteSpace=wrap;rounded=0;" vertex="1" parent="1">
          <mxGeometry x="33.5" y="1010" width="780" height="40" as="geometry" />
        </mxCell>
        <mxCell id="pUUdd5UQNy8CdgNerI3H-14" value="" style="shape=image;verticalLabelPosition=bottom;labelBackgroundColor=default;verticalAlign=top;aspect=fixed;imageAspect=0;image=data:image/png,iVBORw0KGgoAAAANSUhEUgAAAysAAAA6CAIAAAA/V1GoAAAACXBIWXMAAA7EAAAOxAGVKw4bAAALZ0lEQVR4nO3d61cTZx4H8N9MEpJwDUFFFO+KiGgtiBdAFAERDetq9Wztnm6767a7p3u2L/qH7It90bN1t7a2Z2utl8oRcYttpYqK9xvhKqCYYgRyv5NkZl9A0WoCTITJhe/nFXnyPPAbzvdkfjwzc2CKN5cSAAAAAIjCabPEJ6Ww4S4DAAAAYNqROm2WcNcAAAAAML1I02bNDncNAAAAANOFoV9PRFF5FdJoNIa7BIgmCAwIgsCAUMgMhCAqOzAAAACAqIYODAAAAEBs6MAAAAAAxIYODAAAAEBs0nAX8KrKNXuef/l97cl977wfcOaxwwdFqQgAAABgHNgDAwAAABBbLHdgNqvl8vn6b7/67NSRw1cazo01lU3f9PaBqiVxLwwzKXlvfbhndfwUFgmvKDd3ZW7uSgEL2PSSP36gWSqZnB8/ud8Npp7gwMC0N4WZCXLqgag28cBE/VXIl41ebZQp49352/nKD4joUWuTRNdLfn/gNZyptbFBqh8SrUiYFJmZmcVFxURkNlt0Ol24y4FIh8CAUFObGZx6Yo6gwMTyHpg7bxuXV84rE3llIpdX7t9QHXzu0GBPl9710jA/heXBK1KlqCq3bWNZlmXZym3bVCmqcFcEEQ2BAaGmPjNBTj0QnYQGJgb3wIbvxK/56nPHio1EJD3+DyLy7f2IW7FRculU4DVsesk7byRf/KT2gV+qXr6lvHDFLAXnHOy4248mLGKZLeZPDx16le/AxM9bV7ppzfxkGed4or1Uf7nbxqs3vLV/UeuXX9+y8kREimzNuyWO2kPndf6XJ3OTcyAgjhADwyYtLSoryZmdKJPwbkP7xbpz7VZKmLduc9GaRTMT2CFrT+OxM1prwvz1W4rXLEhVkMfYe/9iw/UeG0dsesnbpd7z12QFm1+fy989/kVDHxcgdQhSpAr5Q4aZeEKGTz3dM0reLpPcbFWuzluSpmRc/a2N9T+2mf2B4oeTUsQSGpgY7MBe6ZlHdtYGTcWCvrrPT3TbWfXKyj1rJMbmyasNIgijen3nzlxT/VcHu+1x80r3aTTOI1/fMrVon67PyUq9fcPIEykX5yxwtB7v8zGqvACTzfgojHmSzILyLPu5Lz7pclFc8sxkv41n1AUazSprw8lP2w3++NQEv5XUazU7Vxp/OHqww8QnLS6u1uxivjnS9JQnYtR5Za/d+6nmYK3d5+WCpA5Bii2Meu3EEzKKnfl63pOaU4frrJSau31/WVFvz5kH6S/FL2xHBZMvBjuwUWzrFS5/m2/vR6Mvx1+StnipSn/rZI/NT+Q3ttxs37B45hSXCSFSpajeeGOPXC4nIo/Hc+LESbPFPPHlTGpWbsbArbPdNj+RS3e7xfTuskVJt29bO1oeF+Vlp928PEiJy7IzTa0N/VzQyVN2dDDpQgsMZzdb5atWrlxobn5osPYPEjEzluWkD9w80zbg5onsBjMxaatzZvXfqu0weYnI1n3lRu+fN+VmXHvaR8RIrNqGxm7T8ImTUQcJEs6rESm0zDBpQhLyDPfz3etdVh8Rmdo7+0rzUxOYl+MHkUxoYGKwAxu+Cmm3236oq3ET48+vICLJzXNs0+lx1zKKeKXfZnWNfBzyDruD0IFFKLPF/F19vWbnTiL6rr5eUPtFRGxiYqIko2j/gfUjr2U+q0xORM6u+z3FJStmNTW6lq9I1zfXm/jgkyF6hBYY3njrxDHH2oJ1+/5UZn1w80LjnSfxCQl+m831rGliExLi/Xbb6N08XrvVo0hSDt9l6zebnvVXCFJ0CS0zrLCEjPI7nb/M4DieGIYlfvDF+Omc6NYjl9DAxGAH9vxVSPbSt8MdGHvp24ms5d0ut0SVKCdyEhExcoViaoqESaHT6RovNQ5/IXQt53Q6fY+vf1mjdb/wjuehtqusPHtuq2OFWner086PMZkJvXgQX2iB8Qy0X6prv6JMX1NRvXur4z9XXS5JaqKCyDEygXPYHZL5SUqG7DwRkSwpWe6yOUdu7+KfO2MGTx1EqBAyw7uEJeTZwkDN1QvxO1jb4QnxUEAMggITy89ChoAzdndZMtasW5DAEslSsvKy0/AbimzNzdrmZm0IC3lDh3YgY92mrLQ4hoiRJqTNTh3ZjPDqWtq4xQVFWUk92geucSZDdBEaGCZp1lyVnCXiXKYnRhcjkfCGzjZDen7hslQZQ6w8JS0lzthxv29G3sYlKVIiSeKC9fkLrK0t+gA32CNI0UhoZrhXSMgLXo4f/uiLfBMPTAzugY3+V6LnN8O8H35MRLJ/fjDOYv/TK7XnFeVlB/4m9zsG26/d61g0f8oqhbDijTdO1zIlhXsOlCdIyecYbGs8+9Tk4YnIr29uHXq3UHnnm96hcSdDTGPi522s+u3cRInP53UNdNb/2OHm/FdP/0+yZeObf9muZL2WBxeOn225c+a0dMumN9+vUDA+i05bV3NN7w/0Fy6CNB1wg6En5NcCxE+UIwBxMBXbd4S7BsGMRqNarZ7g5OHea9j4HRjEIkGBAUBgQChkBgQx9Ovjk1JicA8sIPReAAAAEDlivwND7wUAAACRBveZAwAAAIgNHRgAAACA2KKyA8MNjyAIAgOCIDAgFDIDIZAajcZw1wAAAAAwvUiTU1LCXQMAAADAdGExDFCUXoUEAAAAiGrowAAAAADEhg4MAAAAQGzowAAAAADEhg4MAAAAQGzowAAAAADEhg4MAAAAQGzowAAAAADEhg4MAAAAQGySRUuWBnxDqlq2de/+vdmeO9qnXpGLClU01gxhhMCAIMECM2aQFIu3vfO+JqP/RqeRDz7OKOe8VrJjR+X2rcVFedlzFTadzuThiYiUc/KqfqPZUVpUWLB6aRo/+Fhv8481DhEFmYGAPC6nTK6QBnpLkrp8y64tGQa9jZeLXVaoorFmCCMEBgQJFpixg8QkLi8ry/BaufHG42YsnO3Tnv3iuN4tm7lq596qSuOhY1onSeZv3rVe0XTs49uDXsXsjbv3VW/Q//unJ1yw8Sk5dggNMgPjCHgVkvN6njYdP9rQ6+YDvR2RorFmCCMEBgQJFpixgsSqVu0olt9s7HSPO+55fPm7C816p58490BLm16iUiexRMTK5TL3wBPjEBHvHugb9MhkMhpjHCIIMgPjCNiB8faHzW0GHzFiV/MKorFmCCMEBgQJFpjgQZLMKKjK91yqv2PhmYmMj5JlZM50P+kzcUTkfXj1in3lTk3R8oXZGzVlsx9+f+3xWOMQQZAZGAfuxAcAmHSyuYWVqwbP17fZ+QmN/4JJWLa1bIn+woXuISIi8va3Xm12Za7dXFG1YaZJe7/Xxo85DtELmZl2At4HBgAAoVMsLKla+Ojs0Ycu+tVOR7DxEWzy8ordZcl3T5xqtQ6fHJWLt7+5RdZ09ONmA6mWFFXt+r2q7vCPvUPBxsU5PJgCyMw0hA4MAGByKbLyV6Wlefe+t5qIiJUpFUz1XzM7zx15tCrg+GenO7wkVa/esbuQvX7s1L2BX56Ok2SuWO5r+6/W4CUic9eFi/NzqrPm/NT7OMj4QzzaFq2QmekIHRgAwORyt9Qe7JKObFiw6vzf7VZd/fL7TqfT9yjguJfiZhVU78rzXD5R32FhZHFxxPOcz+vnzSZr8sLsObcHfnbxksSF2QsUxjsmjoKNQ9RCZqYjdGAAAJPM53H6PCNfM8ohjve5HU63n8gXeDwup7B0SYqUqt7LqRp+l3fc+/pf9T0D12t+UJRX/uHvCiLi7H3amrp7Fp4o2DhELWRmGmJKKyrDXQMAAADAdGExDMQnpeBZSAAAAACxoQMDAAAAEBs6MAAAAACxoQMDAAAAEBs6MAAAAACxoQMDAAAAEBs6MAAAAACxSb1D+K9QAAAAAKLCHhgAAACA2NCBAQAAAIjt/w1ocFy+Y3CUAAAAAElFTkSuQmCC;" vertex="1" parent="1">
          <mxGeometry x="16" y="-40" width="811" height="58" as="geometry" />
        </mxCell>
        <mxCell id="pUUdd5UQNy8CdgNerI3H-15" value="&lt;font style=&quot;font-size: 24px;&quot;&gt;Player&lt;/font&gt;" style="text;html=1;strokeColor=none;fillColor=none;align=center;verticalAlign=middle;whiteSpace=wrap;rounded=0;" vertex="1" parent="1">
          <mxGeometry x="33.5" y="-90" width="814" height="40" as="geometry" />
        </mxCell>
      </root>
    </mxGraphModel>
  </diagram>
</mxfile>
